<svg xmlns="http://www.w3.org/2000/svg" width="145" zoomAndPan="magnify" viewBox="0 0 108.75 74.999997" height="100"
    preserveAspectRatio="xMidYMid meet" version="1.0">
    <defs>
        <clipPath id="id1">
            <path d="M 0 32 L 108.5 32 L 108.5 43 L 0 43 Z M 0 32 " />
        </clipPath>
        <clipPath id="id2">
            <path d="M 0 35 L 108.5 35 L 108.5 48 L 0 48 Z M 0 35 " />
        </clipPath>
        <clipPath id="id3">
            <path d="M 43 0.0859375 L 68 0.0859375 L 68 6 L 43 6 Z M 43 0.0859375 " />
        </clipPath>
        <clipPath id="id4">
            <path
                d="M 45.023438 36.464844 L 75.90625 36.464844 L 75.90625 74.914062 L 45.023438 74.914062 Z M 45.023438 36.464844 " />
        </clipPath>
        <clipPath id="id5">
            <path
                d="M 60.03125 36.464844 L 76 36.464844 L 76 74.914062 L 60.03125 74.914062 Z M 60.03125 36.464844 " />
        </clipPath>
        <clipPath id="id6">
            <path d="M 45 49 L 63 49 L 63 74.914062 L 45 74.914062 Z M 45 49 " />
        </clipPath>
    </defs>
    <g clip-path="url(#id1)">
        <path fill="#b9ddf1"
            d="M 105.351562 38.078125 L 106.566406 38.078125 C 106.566406 38.078125 106.769531 38.484375 107 38.992188 C 107.277344 39.601562 107.582031 40.386719 107.734375 40.871094 C 107.835938 41.199219 107.964844 41.554688 108.039062 41.882812 C 108.191406 42.464844 108.320312 42.949219 108.320312 42.949219 L 0.0429688 42.617188 C 0.0429688 42.617188 0.0429688 42.1875 0.09375 41.578125 C 0.121094 41.097656 0.171875 40.488281 0.246094 39.804688 C 0.324219 38.992188 0.476562 37.902344 0.652344 36.886719 C 0.753906 36.277344 0.933594 35.519531 0.933594 35.519531 L 1.746094 35.542969 L 1.769531 37.066406 L 3.648438 37.066406 L 3.699219 32.855469 L 5.296875 32.855469 L 5.371094 38.28125 L 50.335938 37.621094 L 53.128906 37.621094 L 53.128906 35.617188 L 54.703125 35.617188 L 54.726562 32.804688 L 55.894531 32.804688 L 55.945312 36.886719 L 57.519531 36.886719 L 57.519531 38.332031 L 59.445312 38.332031 L 59.445312 35.59375 L 60.996094 35.566406 L 60.996094 36.355469 L 62.769531 36.355469 L 79.0625 36.9375 L 83.707031 36.9375 L 83.679688 35.566406 L 88.246094 35.542969 L 89.261719 35.542969 L 89.261719 32.421875 L 90.707031 32.421875 L 90.707031 34.171875 L 92.027344 34.171875 L 92.027344 36.457031 L 94.871094 36.457031 L 94.871094 38.257812 L 97.585938 38.28125 L 97.585938 37.242188 L 99.363281 37.242188 L 99.386719 36.457031 L 100.375 36.480469 L 100.375 38.359375 L 103.015625 38.382812 L 103.015625 39.472656 L 105.351562 39.5 L 105.351562 38.078125 "
            fill-opacity="1" />
    </g>
    <g clip-path="url(#id2)">
        <path fill="#9ecde7"
            d="M 108.320312 42.921875 C 108.445312 43.429688 108.519531 43.914062 108.625 44.496094 C 108.722656 45.105469 108.75 45.332031 108.75 45.332031 C 108.75 45.332031 107.203125 45.460938 106.109375 45.433594 C 105.019531 45.40625 104.386719 45.257812 105.222656 45.078125 C 108.265625 44.519531 92.128906 44.164062 95.808594 45.257812 C 99.183594 46.246094 89.921875 46.347656 83.757812 46.625 C 77.460938 46.90625 71.980469 47.464844 64.472656 47.15625 C 58.230469 46.90625 61.375 46.296875 57.441406 45.992188 C 54.320312 45.738281 46.808594 46.09375 44.042969 46.167969 C 36.253906 46.347656 29.859375 47.96875 23.210938 47.917969 C 12.097656 47.816406 13.390625 45.964844 9.382812 45.964844 C 7.453125 45.964844 5.550781 46.398438 4.054688 46.398438 C 1.464844 46.398438 1.261719 45.914062 0.0703125 45.914062 C 0.0703125 45.914062 0.0195312 45.460938 0.0195312 44.722656 C -0.0078125 43.886719 -0.0078125 43.8125 0.0195312 42.617188 L 2.378906 42.617188 L 2.351562 39.015625 L 3.671875 39.015625 L 3.699219 40.539062 L 5.574219 40.539062 L 5.628906 36.328125 L 7.226562 36.328125 L 7.300781 41.757812 L 52.265625 41.097656 L 55.058594 41.097656 L 55.058594 39.09375 L 56.628906 39.09375 L 56.65625 36.277344 L 57.824219 36.277344 L 57.875 40.363281 L 59.445312 40.363281 L 59.445312 41.808594 L 61.375 41.808594 L 61.375 39.066406 L 62.921875 39.042969 L 62.921875 39.828125 L 64.699219 39.828125 L 80.988281 40.414062 L 85.632812 40.414062 L 85.683594 39.015625 L 90.25 38.992188 L 91.265625 38.992188 L 91.265625 35.871094 L 92.714844 35.871094 L 92.714844 37.621094 L 94.03125 37.621094 L 94.03125 39.90625 L 96.875 39.90625 L 96.875 41.707031 L 99.589844 41.730469 L 99.589844 40.691406 L 101.367188 40.691406 L 101.390625 39.90625 L 102.382812 39.929688 L 102.382812 41.808594 L 105.019531 41.832031 L 105.019531 42.921875 L 108.320312 42.921875 "
            fill-opacity="1" />
    </g>
    <g clip-path="url(#id3)">
        <path fill="#e7f6ff"
            d="M 44.121094 5.386719 C 42.976562 4.984375 44.578125 2.980469 46.757812 2.546875 C 48.941406 2.117188 50.082031 3.03125 50.082031 3.03125 C 50.082031 3.03125 51.351562 0.164062 55.160156 0.164062 C 58.734375 0.140625 59.953125 3.234375 59.953125 3.234375 C 59.953125 3.234375 61.65625 2.34375 63.378906 2.523438 C 66.070312 2.828125 67.972656 5.109375 66.753906 5.492188 C 65.839844 5.792969 60.335938 5.820312 54.957031 5.769531 C 49.828125 5.691406 44.804688 5.617188 44.121094 5.386719 "
            fill-opacity="1" />
    </g>
    <path fill="#e7f6ff"
        d="M 35.824219 15.253906 C 35.085938 15 36.128906 13.683594 37.546875 13.402344 C 38.96875 13.125 39.703125 13.707031 39.703125 13.707031 C 39.703125 13.707031 40.515625 11.855469 43.003906 11.832031 C 45.3125 11.832031 46.101562 13.835938 46.101562 13.835938 C 46.101562 13.835938 47.191406 13.25 48.332031 13.378906 C 50.082031 13.582031 51.300781 15.050781 50.539062 15.304688 C 49.957031 15.507812 46.351562 15.507812 42.878906 15.480469 C 39.527344 15.457031 36.277344 15.40625 35.824219 15.253906 "
        fill-opacity="1" />
    <path fill="#e7f6ff"
        d="M 78.605469 9.851562 C 77.765625 9.546875 78.960938 8.050781 80.558594 7.746094 C 82.183594 7.417969 83.046875 8.101562 83.046875 8.101562 C 83.046875 8.101562 83.984375 5.972656 86.800781 5.972656 C 89.441406 5.945312 90.351562 8.253906 90.351562 8.253906 C 90.351562 8.253906 91.597656 7.59375 92.890625 7.722656 C 94.894531 7.949219 96.292969 9.625 95.402344 9.929688 C 94.71875 10.15625 90.632812 10.15625 86.648438 10.132812 C 82.84375 10.078125 79.113281 10.03125 78.605469 9.851562 "
        fill-opacity="1" />
    <path fill="#ffcf6c"
        d="M 5.246094 44.875 C 5.246094 44.496094 5.195312 43.558594 5.144531 42.566406 C 5.070312 41.046875 5.144531 39.144531 5.703125 38.359375 C 5.929688 38.054688 6.210938 37.597656 6.488281 37.242188 C 7.148438 36.429688 7.886719 35.542969 8.496094 34.25 C 9.050781 33.007812 9.585938 31.738281 10.296875 30.648438 C 10.523438 30.292969 10.777344 29.835938 11.109375 29.53125 C 11.410156 29.253906 12.25 28.621094 12.578125 28.390625 C 13.390625 27.882812 16.132812 27.300781 16.996094 27.175781 C 18.035156 27.019531 19.203125 26.871094 21.03125 26.742188 C 25.671875 26.414062 32.09375 26.234375 34.859375 26.945312 C 36.53125 27.351562 38.664062 28.542969 40.644531 30.269531 C 42.191406 31.613281 43.585938 32.675781 44.476562 33.691406 C 45.058594 34.351562 45.492188 35.316406 45.492188 35.316406 C 45.492188 35.316406 47.925781 36.226562 50.058594 37.34375 C 51.148438 37.925781 52.0625 38.613281 52.722656 39.121094 C 54.117188 40.183594 55.285156 42.441406 55.792969 44.902344 C 56.023438 46.09375 56.25 47.4375 56.25 48.628906 C 56.273438 50 56.046875 51.191406 56.046875 51.191406 C 56.046875 51.191406 55.183594 53.878906 51.886719 54.894531 C 49.324219 55.679688 44.804688 55.832031 41.480469 55.859375 C 36.382812 55.90625 30.113281 55.527344 26.839844 54.742188 C 24.886719 54.257812 24.582031 53.21875 24.582031 53.21875 L 18.339844 50.605469 C 18.339844 50.605469 17.855469 50.886719 17.476562 50.808594 C 16.765625 50.632812 14.789062 49.820312 13.339844 49.085938 C 12.148438 48.476562 11.160156 47.664062 11.160156 47.664062 L 6.03125 46.042969 C 6.085938 46.042969 5.246094 45.636719 5.246094 44.875 "
        fill-opacity="1" />
    <path fill="#9aaab8"
        d="M 6.210938 46.09375 C 6.132812 45.054688 6.058594 43.429688 6.160156 42.261719 C 6.210938 41.605469 6.386719 41.25 6.515625 41.199219 C 6.894531 41.070312 7.429688 40.996094 7.886719 41.171875 C 8.339844 41.351562 9.027344 41.984375 9.433594 42.644531 C 10.269531 43.960938 10.421875 45.433594 10.726562 46.472656 C 10.855469 46.878906 11.183594 47.613281 11.183594 47.613281 C 11.183594 47.613281 11.082031 48.882812 10.726562 49.464844 C 10.320312 50.175781 8.671875 50.125 8.140625 49.972656 C 6.921875 49.667969 6.335938 47.867188 6.210938 46.09375 "
        fill-opacity="1" />
    <path fill="#99a9b8"
        d="M 18.011719 48.679688 C 18.011719 46.828125 18.1875 45.003906 18.71875 44.496094 C 19.253906 43.988281 19.914062 44.191406 19.914062 44.191406 C 19.914062 44.191406 20.777344 45.105469 21.28125 46.195312 C 21.359375 46.371094 21.96875 47.511719 22.679688 48.425781 C 23.085938 48.960938 23.695312 49.515625 23.898438 49.949219 C 24.277344 50.808594 24.328125 51.546875 24.429688 52.128906 C 24.507812 52.6875 24.582031 53.042969 24.582031 53.042969 C 24.582031 53.042969 24.378906 54.234375 24.328125 54.460938 C 24.101562 55.300781 23.820312 55.859375 23.085938 56.035156 C 22.476562 56.1875 21.535156 56.238281 21.054688 56.160156 C 20.699219 56.109375 20.421875 55.933594 20.34375 55.933594 C 20.140625 55.933594 19.152344 55.402344 18.695312 54.03125 C 18.085938 52.382812 18.011719 49.695312 18.011719 48.679688 "
        fill-opacity="1" />
    <path fill="#b9ddf1"
        d="M 8.976562 34.503906 C 8.949219 34.171875 10.144531 31.816406 11.234375 30.320312 C 11.792969 29.53125 12.273438 29.101562 12.605469 29.078125 C 13.113281 29.023438 13.796875 29.203125 13.796875 29.203125 C 13.796875 29.203125 12.476562 31.714844 12.125 32.574219 C 11.742188 33.488281 11.132812 35.46875 11.132812 35.46875 C 11.132812 35.46875 10.195312 35.265625 9.585938 34.984375 C 9.179688 34.859375 8.976562 34.730469 8.976562 34.503906 "
        fill-opacity="1" />
    <path fill="#b9ddf1"
        d="M 17.042969 28.898438 C 16.945312 28.238281 19.328125 28.085938 21.789062 27.882812 C 23.59375 27.730469 25.902344 27.527344 27.21875 27.527344 C 28.945312 27.527344 34.324219 27.375 35.898438 27.707031 C 36.433594 27.808594 36.914062 28.113281 37.546875 28.492188 C 38.257812 28.921875 39.121094 29.480469 39.730469 29.964844 C 41.253906 31.105469 42.828125 32.421875 43.765625 33.4375 C 44.5 34.222656 44.730469 34.832031 44.730469 34.984375 C 44.730469 35.363281 43.308594 35.035156 41.53125 35.113281 C 39.25 35.214844 36.101562 35.238281 33.539062 35.339844 C 31.863281 35.390625 30.441406 35.542969 29.605469 35.542969 C 28.792969 35.542969 27.195312 35.671875 25.570312 35.796875 C 24.050781 35.898438 22.5 36.023438 21.585938 35.441406 C 20.800781 34.933594 19.914062 33.664062 19.152344 32.550781 C 17.984375 30.851562 17.097656 29.226562 17.042969 28.898438 "
        fill-opacity="1" />
    <path fill="#b9ddf1"
        d="M 11.566406 35.695312 C 11.566406 35.695312 11.894531 34.199219 12.527344 32.675781 C 13.164062 31.15625 14.203125 29.480469 14.203125 29.480469 C 14.203125 29.480469 14.609375 29.558594 15.117188 29.886719 C 15.878906 30.394531 16.84375 31.332031 16.691406 32.347656 C 16.613281 32.855469 16.410156 35.136719 16.410156 35.136719 C 16.410156 35.136719 14.839844 35.214844 14.027344 35.492188 C 13.214844 35.769531 13.136719 36.152344 13.136719 36.152344 L 11.566406 35.695312 "
        fill-opacity="1" />
    <path fill="#ffffff"
        d="M 22.019531 39.195312 C 22.019531 38.078125 22.984375 38.332031 24.757812 38.738281 C 25.671875 38.941406 27.828125 39.703125 29.707031 40.640625 C 31.992188 41.78125 34.070312 43.277344 34.097656 43.9375 C 34.148438 44.597656 29.554688 43.683594 27.523438 43.378906 C 26.128906 43.175781 24.457031 42.542969 23.289062 41.425781 C 22.527344 40.640625 22.019531 39.652344 22.019531 39.195312 "
        fill-opacity="1" />
    <path fill="#ccd7e1"
        d="M 25.140625 51.925781 C 25.140625 51.164062 25.34375 50.277344 26.664062 50.277344 C 27.121094 50.277344 27.933594 50.480469 28.945312 50.960938 C 31.027344 51.953125 33.488281 53.21875 33.488281 53.699219 C 33.488281 54.003906 32.523438 54.082031 31.507812 54.082031 C 30.0625 54.082031 28.210938 53.929688 27.371094 53.804688 C 25.902344 53.574219 25.140625 52.6875 25.140625 51.925781 "
        fill-opacity="1" />
    <path fill="#99a9b8"
        d="M 33.867188 48.933594 C 33.867188 48.65625 34.25 48.65625 35.035156 48.65625 C 36.179688 48.65625 38.03125 48.730469 39.273438 48.730469 C 40.414062 48.730469 45.109375 48.757812 49.144531 48.351562 C 52.597656 48.019531 54.066406 47.511719 55.386719 47.359375 C 55.667969 47.335938 55.820312 48.199219 55.613281 49.339844 C 55.539062 49.769531 55.234375 50.683594 54.90625 51.0625 C 54.574219 51.46875 54.167969 51.597656 53.28125 51.902344 C 51.25 52.558594 47.902344 52.863281 44.78125 52.964844 C 41.253906 53.09375 38.003906 52.964844 37.167969 52.839844 C 35.0625 52.558594 33.867188 49.617188 33.867188 48.933594 "
        fill-opacity="1" />
    <path fill="#99a9b8"
        d="M 33.234375 42.113281 C 33.234375 41.808594 34.222656 41.859375 35.519531 41.910156 C 36.839844 41.960938 38.460938 42.035156 39.351562 42.035156 C 40.390625 42.035156 45.746094 41.960938 49.472656 41.578125 C 52.0625 41.300781 53.28125 40.617188 53.433594 40.816406 C 53.585938 41.019531 53.382812 41.503906 53.128906 42.238281 C 52.949219 42.746094 52.621094 43.632812 51.988281 43.960938 C 51.125 44.417969 49.753906 44.621094 48.382812 44.800781 C 46.277344 45.078125 44.144531 45.207031 43.613281 45.207031 C 43.382812 45.207031 41.074219 45.308594 40.035156 45.207031 C 38.003906 45.027344 36.558594 44.875 35.773438 44.546875 C 34.808594 44.113281 33.234375 42.414062 33.234375 42.113281 "
        fill-opacity="1" />
    <path fill="#99a9b8"
        d="M 34.578125 55.652344 C 34.578125 55.652344 34.933594 55.5 35.214844 55.246094 C 35.773438 54.714844 35.847656 54.109375 37.167969 53.855469 C 37.953125 53.699219 43.054688 53.929688 47.214844 53.675781 C 49.703125 53.523438 51.960938 53.015625 51.960938 53.015625 C 51.960938 53.015625 51.554688 53.523438 51.300781 54.234375 C 51.023438 54.945312 50.84375 55.808594 50.84375 55.808594 C 50.84375 55.808594 49.753906 56.058594 48.460938 56.109375 C 46.453125 56.1875 45.949219 55.730469 45.949219 55.730469 C 45.949219 55.730469 43.382812 55.882812 40.921875 55.882812 C 37.929688 55.859375 34.578125 55.652344 34.578125 55.652344 "
        fill-opacity="1" />
    <path fill="#ffcf6c"
        d="M 16.386719 35.136719 L 16.792969 32.070312 C 16.792969 32.070312 18.441406 35.441406 18.617188 35.925781 C 18.796875 36.40625 19.226562 37.671875 18.464844 38.027344 C 17.402344 38.535156 14.632812 37.546875 14.355469 37.445312 C 13.949219 37.292969 13.722656 36.9375 13.722656 36.9375 L 16.132812 37.167969 C 16.132812 37.167969 16.867188 36.785156 16.945312 36.277344 C 16.996094 35.769531 16.386719 35.136719 16.386719 35.136719 "
        fill-opacity="1" />
    <path fill="#ffffff"
        d="M 54.09375 40.714844 C 54.09375 40.714844 53.941406 41.019531 53.535156 42.746094 C 53.40625 43.304688 53.507812 43.457031 53.914062 43.328125 C 54.371094 43.175781 55.160156 42.667969 55.160156 42.667969 C 55.160156 42.667969 54.804688 41.859375 54.625 41.503906 C 54.449219 41.171875 54.09375 40.714844 54.09375 40.714844 "
        fill-opacity="1" />
    <path fill="#384154"
        d="M 18.011719 47.691406 C 17.933594 47.691406 17.882812 47.640625 17.882812 47.5625 C 17.933594 46.449219 18.058594 45.5625 18.289062 44.976562 C 18.59375 44.140625 19.074219 44.015625 19.886719 44.0625 C 19.964844 44.0625 20.015625 44.140625 20.015625 44.191406 C 20.015625 44.265625 19.964844 44.316406 19.886719 44.316406 C 19.050781 44.265625 18.769531 44.445312 18.542969 45.054688 C 18.339844 45.636719 18.214844 46.472656 18.160156 47.5625 C 18.136719 47.613281 18.085938 47.691406 18.011719 47.691406 "
        fill-opacity="1" />
    <path fill="#384154"
        d="M 21.332031 56.339844 C 20.722656 56.339844 20.167969 56.136719 19.710938 55.753906 C 18.769531 54.996094 18.214844 53.5 18.011719 51.34375 C 17.90625 50.277344 17.832031 48.628906 17.882812 47.511719 C 17.882812 47.4375 17.960938 47.386719 18.011719 47.386719 C 18.085938 47.386719 18.136719 47.464844 18.136719 47.511719 C 18.085938 48.628906 18.160156 50.253906 18.261719 51.316406 C 18.441406 53.421875 19 54.84375 19.863281 55.554688 C 20.371094 55.957031 20.953125 56.136719 21.640625 56.058594 C 21.816406 56.035156 21.96875 56.035156 22.144531 56.035156 C 22.933594 56.007812 23.667969 55.957031 23.972656 54.996094 C 24.125 54.488281 24.300781 53.929688 24.378906 53.015625 C 24.378906 52.941406 24.457031 52.890625 24.507812 52.890625 C 24.582031 52.890625 24.632812 52.964844 24.632812 53.015625 C 24.554688 53.957031 24.378906 54.539062 24.226562 55.046875 C 23.871094 56.1875 22.957031 56.238281 22.171875 56.261719 C 21.992188 56.261719 21.839844 56.289062 21.664062 56.289062 C 21.5625 56.339844 21.460938 56.339844 21.332031 56.339844 "
        fill-opacity="1" />
    <path fill="#384154"
        d="M 17.65625 50.886719 C 17.578125 50.886719 17.527344 50.835938 17.527344 50.757812 C 17.527344 50.683594 17.5 50.605469 17.5 50.480469 C 17.425781 49.796875 17.25 48.402344 17.324219 46.625 C 17.324219 46.550781 17.375 46.5 17.453125 46.5 C 17.527344 46.5 17.578125 46.550781 17.578125 46.625 C 17.5 48.375 17.65625 49.769531 17.757812 50.429688 C 17.78125 50.554688 17.78125 50.632812 17.78125 50.707031 C 17.78125 50.808594 17.730469 50.886719 17.65625 50.886719 "
        fill-opacity="1" />
    <path fill="#384154"
        d="M 34.933594 55.554688 C 32.472656 55.527344 30.34375 55.425781 28.945312 55.246094 L 28.894531 55.246094 C 27.574219 55.070312 25.800781 54.84375 24.808594 53.75 C 24.300781 53.195312 24.226562 52.507812 24.148438 51.773438 C 24.050781 50.960938 23.945312 50.125 23.261719 49.339844 C 22.246094 48.199219 21.585938 47.058594 21.078125 46.117188 C 20.519531 45.105469 20.066406 44.316406 19.457031 44.113281 C 19.050781 43.988281 18.71875 44.015625 18.441406 44.191406 C 17.960938 44.519531 17.679688 45.359375 17.605469 46.675781 C 17.605469 46.753906 17.527344 46.804688 17.476562 46.804688 C 17.402344 46.804688 17.351562 46.726562 17.351562 46.675781 C 17.425781 45.257812 17.757812 44.367188 18.3125 43.988281 C 18.644531 43.761719 19.050781 43.734375 19.53125 43.886719 C 20.242188 44.113281 20.722656 44.953125 21.308594 46.015625 C 21.816406 46.929688 22.476562 48.097656 23.464844 49.1875 C 24.226562 50.023438 24.328125 50.9375 24.429688 51.75 C 24.507812 52.433594 24.582031 53.09375 25.039062 53.574219 C 25.976562 54.613281 27.625 54.816406 28.972656 54.996094 L 29.023438 54.996094 C 30.417969 55.171875 32.523438 55.273438 34.960938 55.300781 C 35.113281 55.300781 35.1875 55.171875 35.367188 54.917969 C 35.59375 54.5625 35.925781 54.058594 36.789062 53.777344 C 37.242188 53.625 38.613281 53.625 40.492188 53.652344 C 42.167969 53.675781 44.273438 53.675781 46.328125 53.574219 C 49.269531 53.421875 52.441406 52.8125 53.253906 52.558594 C 53.660156 52.433594 53.992188 52.433594 54.246094 52.585938 C 54.652344 52.8125 54.726562 53.371094 54.777344 53.726562 C 54.804688 53.804688 54.804688 53.90625 54.828125 53.980469 C 54.851562 53.957031 54.878906 53.929688 54.90625 53.878906 C 55.867188 52.558594 56.148438 50.152344 56.171875 49.339844 C 56.222656 47.5625 55.867188 42.441406 53.433594 40.03125 C 53.382812 39.980469 53.382812 39.90625 53.433594 39.855469 C 53.484375 39.804688 53.558594 39.804688 53.609375 39.855469 C 56.605469 42.847656 56.425781 49.289062 56.425781 49.363281 C 56.402344 50.203125 56.097656 52.6875 55.105469 54.058594 C 55.007812 54.183594 54.90625 54.3125 54.753906 54.285156 C 54.601562 54.257812 54.574219 54.058594 54.523438 53.777344 C 54.472656 53.449219 54.398438 52.992188 54.09375 52.8125 C 53.914062 52.710938 53.636719 52.710938 53.304688 52.8125 C 52.492188 53.09375 49.296875 53.703125 46.328125 53.855469 C 44.273438 53.957031 42.167969 53.929688 40.492188 53.929688 C 38.691406 53.90625 37.269531 53.90625 36.863281 54.03125 C 36.078125 54.285156 35.796875 54.714844 35.570312 55.070312 C 35.390625 55.324219 35.238281 55.554688 34.933594 55.554688 "
        fill-opacity="1" />
    <path fill="#384154"
        d="M 17.855469 38.28125 C 17.730469 38.28125 17.578125 38.257812 17.402344 38.230469 C 16.765625 38.128906 15.648438 37.875 14.484375 37.597656 C 14.40625 37.570312 14.382812 37.519531 14.382812 37.445312 C 14.40625 37.367188 14.457031 37.34375 14.535156 37.34375 C 15.675781 37.621094 16.792969 37.875 17.425781 37.976562 C 17.933594 38.054688 18.3125 38.003906 18.515625 37.800781 C 18.820312 37.496094 18.746094 36.914062 18.71875 36.609375 L 18.71875 36.558594 C 18.617188 35.847656 17.148438 32.625 16.285156 31.257812 C 16.257812 31.207031 16.257812 31.128906 16.335938 31.078125 C 16.386719 31.054688 16.460938 31.054688 16.511719 31.128906 C 17.351562 32.449219 18.871094 35.71875 18.972656 36.53125 L 18.972656 36.582031 C 19.023438 36.9375 19.101562 37.597656 18.695312 38.003906 C 18.515625 38.207031 18.214844 38.28125 17.855469 38.28125 "
        fill-opacity="1" />
    <path fill="#384154"
        d="M 6.160156 46.167969 C 6.132812 46.167969 6.132812 46.167969 6.109375 46.167969 C 5.347656 45.863281 5.144531 45.179688 5.09375 44.164062 C 5.019531 43.253906 5.019531 41.910156 5.019531 41.730469 C 5.019531 39.5 5.320312 38.433594 6.285156 37.316406 L 6.335938 37.242188 C 6.792969 36.710938 7.402344 35.972656 7.960938 35.164062 C 8.011719 35.113281 8.089844 35.085938 8.140625 35.136719 C 8.1875 35.1875 8.214844 35.265625 8.164062 35.316406 C 7.605469 36.152344 6.972656 36.886719 6.515625 37.417969 L 6.464844 37.496094 C 5.550781 38.585938 5.273438 39.574219 5.273438 41.757812 C 5.273438 41.910156 5.296875 43.253906 5.347656 44.164062 C 5.425781 45.257812 5.652344 45.714844 6.210938 45.941406 C 6.285156 45.964844 6.3125 46.042969 6.285156 46.09375 C 6.261719 46.144531 6.210938 46.167969 6.160156 46.167969 "
        fill-opacity="1" />
    <path fill="#384154"
        d="M 30.796875 27.605469 C 25.445312 27.605469 19.328125 28.0625 17.453125 28.570312 C 17.324219 28.621094 17.222656 28.671875 17.199219 28.746094 C 17.121094 28.921875 17.25 29.226562 17.324219 29.378906 C 18.085938 30.953125 20.699219 34.554688 21.382812 35.085938 C 22.042969 35.617188 22.730469 35.644531 23.390625 35.671875 L 23.464844 35.671875 C 23.769531 35.695312 24.988281 35.617188 26.6875 35.492188 C 28.414062 35.390625 30.773438 35.238281 33.261719 35.136719 C 36.40625 34.984375 42.421875 34.910156 44.375 34.933594 C 44.425781 34.933594 44.578125 34.933594 44.601562 34.859375 C 44.703125 34.605469 43.890625 33.539062 41.914062 31.816406 C 40.847656 30.902344 39.324219 29.761719 38.054688 28.949219 C 36.863281 28.1875 36.078125 27.808594 35.824219 27.808594 C 35.796875 27.808594 35.796875 27.808594 35.773438 27.808594 C 34.605469 27.707031 32.675781 27.605469 30.796875 27.605469 Z M 23.566406 35.949219 C 23.515625 35.949219 23.492188 35.949219 23.464844 35.949219 L 23.390625 35.949219 C 22.730469 35.925781 21.941406 35.898438 21.230469 35.316406 C 20.496094 34.730469 17.832031 30.976562 17.121094 29.53125 C 17.019531 29.328125 16.84375 28.972656 16.96875 28.671875 C 17.042969 28.515625 17.171875 28.390625 17.402344 28.339844 C 19.304688 27.808594 25.417969 27.351562 30.796875 27.351562 C 32.703125 27.351562 34.65625 27.476562 35.847656 27.578125 C 35.875 27.578125 35.875 27.578125 35.898438 27.605469 C 36.277344 27.65625 37.117188 28.085938 38.183594 28.796875 C 39.476562 29.632812 41 30.773438 42.089844 31.6875 C 43.460938 32.878906 45.058594 34.425781 44.855469 35.011719 C 44.804688 35.113281 44.703125 35.238281 44.398438 35.238281 C 42.445312 35.214844 36.433594 35.289062 33.285156 35.441406 C 30.796875 35.566406 28.4375 35.695312 26.738281 35.796875 C 25.089844 35.871094 24 35.949219 23.566406 35.949219 "
        fill-opacity="1" />
    <path fill="#384154"
        d="M 22.90625 38.511719 C 22.679688 38.511719 22.476562 38.535156 22.347656 38.613281 C 22.171875 38.714844 22.121094 38.941406 22.144531 39.121094 C 22.171875 39.929688 23.109375 41.503906 25.164062 42.515625 C 27.015625 43.429688 33.589844 44.292969 33.996094 43.960938 C 33.996094 43.960938 33.996094 43.9375 33.996094 43.914062 C 33.867188 43.253906 30.875 40.945312 27.703125 39.828125 L 27.371094 39.703125 C 25.671875 39.144531 23.898438 38.511719 22.90625 38.511719 Z M 34.070312 44.089844 Z M 33.3125 44.292969 C 31.304688 44.292969 26.460938 43.457031 25.039062 42.746094 C 23.035156 41.757812 21.917969 40.132812 21.890625 39.121094 C 21.890625 38.789062 21.992188 38.511719 22.246094 38.382812 C 23.058594 37.925781 25.214844 38.6875 27.476562 39.472656 L 27.804688 39.601562 C 30.925781 40.691406 34.097656 43.074219 34.25 43.863281 C 34.273438 44.015625 34.199219 44.089844 34.175781 44.140625 C 34.046875 44.265625 33.742188 44.292969 33.3125 44.292969 "
        fill-opacity="1" />
    <path fill="#384154"
        d="M 49.527344 41.527344 Z M 33.996094 41.960938 C 33.945312 41.960938 33.917969 41.960938 33.867188 41.960938 C 33.4375 41.984375 33.386719 42.0625 33.386719 42.0625 C 33.363281 42.085938 33.363281 42.238281 33.867188 42.746094 C 34.25 43.125 35.367188 44.191406 36 44.46875 C 36.761719 44.800781 39.753906 45.207031 43.789062 45.027344 C 47.648438 44.875 51.453125 44.214844 52.140625 43.761719 C 52.492188 43.53125 52.796875 43 53.078125 42.113281 L 53.101562 42.011719 C 53.230469 41.628906 53.433594 41.019531 53.382812 40.871094 C 53.332031 40.84375 53.078125 40.917969 52.796875 40.996094 C 52.191406 41.171875 51.175781 41.476562 49.527344 41.628906 C 45.160156 42.035156 43.585938 42.0625 40.136719 42.113281 L 39.933594 42.113281 C 37.546875 42.136719 36 42.0625 34.984375 42.011719 C 34.578125 41.984375 34.25 41.960938 33.996094 41.960938 Z M 41.863281 45.359375 C 38.765625 45.359375 36.558594 45.027344 35.898438 44.75 C 35.238281 44.46875 34.148438 43.457031 33.664062 42.949219 C 33.210938 42.464844 33.054688 42.210938 33.132812 42.011719 C 33.210938 41.78125 33.539062 41.757812 33.84375 41.730469 C 34.097656 41.730469 34.476562 41.730469 35.011719 41.78125 C 36.027344 41.832031 37.574219 41.933594 39.933594 41.882812 L 40.136719 41.882812 C 43.585938 41.832031 45.160156 41.808594 49.5 41.402344 C 51.125 41.25 52.140625 40.96875 52.746094 40.792969 C 53.28125 40.640625 53.535156 40.566406 53.636719 40.816406 C 53.710938 41.046875 53.585938 41.503906 53.355469 42.136719 L 53.332031 42.238281 C 53.027344 43.203125 52.671875 43.761719 52.289062 44.015625 C 51.554688 44.496094 47.773438 45.152344 43.816406 45.308594 C 43.105469 45.332031 42.472656 45.359375 41.863281 45.359375 "
        fill-opacity="1" />
    <path fill="#384154"
        d="M 40.390625 42.644531 C 36.40625 42.644531 33.414062 42.390625 33.335938 42.390625 C 33.261719 42.390625 33.210938 42.316406 33.210938 42.261719 C 33.210938 42.1875 33.285156 42.136719 33.335938 42.136719 C 33.460938 42.136719 45.667969 43.152344 53.382812 41.070312 C 53.457031 41.046875 53.507812 41.097656 53.535156 41.171875 C 53.558594 41.25 53.507812 41.300781 53.433594 41.324219 C 49.550781 42.363281 44.449219 42.644531 40.390625 42.644531 "
        fill-opacity="1" />
    <path fill="#384154"
        d="M 40.238281 43.203125 C 36.40625 43.203125 33.769531 42.921875 33.714844 42.921875 C 33.640625 42.921875 33.589844 42.847656 33.613281 42.769531 C 33.613281 42.695312 33.691406 42.644531 33.769531 42.667969 C 33.867188 42.667969 43.738281 43.707031 53.253906 41.730469 C 53.332031 41.707031 53.382812 41.757812 53.40625 41.832031 C 53.433594 41.910156 53.382812 41.960938 53.304688 41.984375 C 48.636719 42.949219 43.890625 43.203125 40.238281 43.203125 "
        fill-opacity="1" />
    <path fill="#384154"
        d="M 40.492188 43.785156 C 36.886719 43.785156 34.453125 43.53125 34.402344 43.53125 C 34.324219 43.53125 34.273438 43.457031 34.300781 43.378906 C 34.300781 43.304688 34.375 43.253906 34.453125 43.277344 C 34.554688 43.277344 43.890625 44.265625 53.027344 42.363281 C 53.101562 42.339844 53.152344 42.390625 53.179688 42.464844 C 53.203125 42.542969 53.152344 42.59375 53.078125 42.617188 C 48.535156 43.558594 43.96875 43.785156 40.492188 43.785156 "
        fill-opacity="1" />
    <path fill="#384154"
        d="M 40.617188 44.394531 C 37.269531 44.394531 35.0625 44.164062 35.035156 44.140625 C 34.960938 44.140625 34.910156 44.0625 34.933594 43.988281 C 34.933594 43.914062 35.011719 43.863281 35.085938 43.886719 C 35.164062 43.886719 43.664062 44.824219 52.773438 43 C 52.847656 42.972656 52.898438 43.023438 52.925781 43.101562 C 52.949219 43.175781 52.898438 43.226562 52.824219 43.253906 C 48.28125 44.164062 43.890625 44.394531 40.617188 44.394531 "
        fill-opacity="1" />
    <path fill="#384154"
        d="M 41.558594 44.953125 C 38.234375 44.953125 35.898438 44.699219 35.847656 44.699219 C 35.773438 44.699219 35.722656 44.621094 35.746094 44.546875 C 35.746094 44.46875 35.824219 44.417969 35.898438 44.445312 C 35.976562 44.445312 44.5 45.359375 52.316406 43.660156 C 52.394531 43.632812 52.441406 43.683594 52.46875 43.761719 C 52.492188 43.835938 52.441406 43.886719 52.367188 43.914062 C 48.5625 44.75 44.628906 44.953125 41.558594 44.953125 "
        fill-opacity="1" />
    <path fill="#384154"
        d="M 27.421875 43.457031 C 27.371094 43.457031 27.324219 43.429688 27.296875 43.355469 C 27.273438 43.277344 27.324219 43.226562 27.371094 43.203125 C 28.210938 42.972656 28.769531 42.289062 28.71875 41.554688 C 28.691406 40.640625 27.804688 39.957031 26.714844 39.980469 C 26.359375 39.980469 25.851562 40.132812 25.519531 40.539062 C 25.265625 40.871094 25.164062 41.273438 25.265625 41.78125 C 25.292969 41.859375 25.242188 41.910156 25.164062 41.933594 C 25.089844 41.960938 25.039062 41.910156 25.011719 41.832031 C 24.910156 41.273438 25.011719 40.765625 25.316406 40.386719 C 25.699219 39.90625 26.308594 39.726562 26.714844 39.726562 C 27.933594 39.703125 28.921875 40.511719 28.972656 41.554688 C 28.996094 42.414062 28.363281 43.203125 27.421875 43.457031 C 27.449219 43.457031 27.421875 43.457031 27.421875 43.457031 "
        fill-opacity="1" />
    <path fill="#384154"
        d="M 31.355469 44.113281 C 31.332031 44.113281 31.28125 44.089844 31.253906 44.0625 C 31.203125 44.015625 31.203125 43.9375 31.28125 43.886719 C 31.585938 43.632812 31.738281 43.277344 31.710938 42.898438 C 31.6875 42.210938 31.101562 41.679688 30.390625 41.730469 C 30.0625 41.757812 29.734375 41.882812 29.503906 42.136719 C 29.277344 42.390625 29.148438 42.695312 29.175781 43.023438 C 29.175781 43.253906 29.25 43.457031 29.378906 43.660156 C 29.429688 43.707031 29.402344 43.785156 29.351562 43.835938 C 29.300781 43.886719 29.226562 43.863281 29.175781 43.8125 C 29.023438 43.582031 28.945312 43.328125 28.921875 43.050781 C 28.894531 42.644531 29.046875 42.261719 29.328125 41.984375 C 29.605469 41.679688 29.988281 41.527344 30.390625 41.503906 C 31.230469 41.476562 31.941406 42.113281 31.992188 42.921875 C 32.015625 43.378906 31.8125 43.8125 31.457031 44.113281 C 31.40625 44.113281 31.382812 44.113281 31.355469 44.113281 "
        fill-opacity="1" />
    <path fill="#384154"
        d="M 16.664062 50.605469 C 16.613281 50.605469 16.539062 50.554688 16.539062 50.507812 C 15.929688 46.347656 16.335938 44.164062 16.691406 42.210938 C 16.945312 40.871094 17.148438 39.726562 16.996094 38.128906 C 16.996094 38.054688 17.042969 38.003906 17.121094 38.003906 C 17.199219 38.003906 17.25 38.054688 17.25 38.128906 C 17.375 39.753906 17.171875 40.96875 16.917969 42.289062 C 16.5625 44.214844 16.183594 46.371094 16.765625 50.480469 C 16.792969 50.53125 16.742188 50.582031 16.664062 50.605469 "
        fill-opacity="1" />
    <path fill="#384154"
        d="M 34.78125 48.804688 C 34.402344 48.804688 34.097656 48.832031 33.996094 48.933594 C 33.894531 49.164062 34.757812 50.960938 35.695312 51.953125 C 36.53125 52.863281 38.132812 52.914062 42.800781 52.863281 C 47.902344 52.8125 53.941406 52.078125 54.753906 51.089844 C 55.464844 50.226562 55.691406 48.578125 55.539062 47.816406 C 55.488281 47.613281 55.4375 47.511719 55.386719 47.488281 C 55.335938 47.488281 54.980469 47.5625 54.550781 47.640625 C 53.382812 47.894531 51.199219 48.351562 47.648438 48.628906 C 43.460938 48.984375 38.589844 48.882812 36.507812 48.832031 C 36.179688 48.832031 35.925781 48.832031 35.773438 48.804688 C 35.59375 48.804688 35.441406 48.804688 35.265625 48.804688 C 35.085938 48.804688 34.933594 48.804688 34.78125 48.804688 Z M 40.871094 53.144531 C 37.574219 53.144531 36.277344 52.964844 35.492188 52.128906 C 34.730469 51.316406 33.4375 49.136719 33.816406 48.757812 C 34.046875 48.527344 34.554688 48.527344 35.265625 48.554688 C 35.417969 48.554688 35.59375 48.554688 35.773438 48.554688 C 35.925781 48.554688 36.179688 48.554688 36.507812 48.578125 C 38.589844 48.628906 43.460938 48.730469 47.621094 48.375 C 51.175781 48.097656 53.332031 47.640625 54.5 47.386719 C 55.210938 47.234375 55.386719 47.210938 55.488281 47.257812 C 55.613281 47.335938 55.71875 47.511719 55.765625 47.765625 C 55.917969 48.605469 55.691406 50.328125 54.929688 51.242188 C 53.941406 52.457031 47.242188 53.066406 42.773438 53.117188 C 42.066406 53.144531 41.429688 53.144531 40.871094 53.144531 "
        fill-opacity="1" />
    <path fill="#384154"
        d="M 38.488281 50.632812 C 36.382812 50.632812 34.808594 50.582031 34.402344 50.480469 C 34.324219 50.457031 34.300781 50.40625 34.300781 50.328125 C 34.324219 50.253906 34.375 50.226562 34.453125 50.226562 C 34.984375 50.328125 38.207031 50.429688 42.320312 50.300781 C 45.644531 50.203125 51.785156 49.898438 55.539062 48.984375 C 55.613281 48.960938 55.667969 49.007812 55.691406 49.085938 C 55.71875 49.164062 55.667969 49.210938 55.589844 49.238281 C 51.808594 50.175781 45.644531 50.480469 42.320312 50.582031 C 40.949219 50.605469 39.65625 50.632812 38.488281 50.632812 "
        fill-opacity="1" />
    <path fill="#384154"
        d="M 38.410156 51.0625 C 36.40625 51.0625 34.960938 51.011719 34.707031 50.960938 C 34.628906 50.9375 34.605469 50.886719 34.605469 50.808594 C 34.628906 50.734375 34.679688 50.707031 34.757812 50.707031 C 35.746094 50.910156 51.378906 50.886719 55.4375 49.414062 C 55.511719 49.390625 55.5625 49.414062 55.589844 49.492188 C 55.613281 49.566406 55.589844 49.617188 55.511719 49.644531 C 52.441406 50.785156 43.535156 51.0625 38.410156 51.0625 "
        fill-opacity="1" />
    <path fill="#384154"
        d="M 39.503906 51.519531 C 37.039062 51.519531 35.265625 51.445312 34.933594 51.367188 C 34.859375 51.34375 34.832031 51.292969 34.832031 51.214844 C 34.859375 51.140625 34.910156 51.113281 34.984375 51.113281 C 35.949219 51.316406 48.738281 51.570312 55.308594 49.871094 C 55.386719 49.847656 55.4375 49.898438 55.464844 49.972656 C 55.488281 50.050781 55.4375 50.101562 55.363281 50.125 C 51.074219 51.242188 44.09375 51.519531 39.503906 51.519531 "
        fill-opacity="1" />
    <path fill="#384154"
        d="M 40.136719 52.003906 C 37.496094 52.003906 35.644531 51.875 35.316406 51.800781 C 35.238281 51.773438 35.214844 51.722656 35.214844 51.648438 C 35.238281 51.570312 35.289062 51.546875 35.367188 51.546875 C 36.179688 51.722656 46.507812 52.207031 55.132812 50.328125 C 55.210938 50.300781 55.261719 50.351562 55.285156 50.429688 C 55.308594 50.507812 55.261719 50.554688 55.183594 50.582031 C 49.984375 51.75 44.121094 52.003906 40.136719 52.003906 "
        fill-opacity="1" />
    <path fill="#384154"
        d="M 40.3125 52.457031 C 37.625 52.457031 35.875 52.304688 35.644531 52.253906 C 35.570312 52.230469 35.542969 52.179688 35.542969 52.105469 C 35.570312 52.027344 35.621094 52.003906 35.695312 52.003906 C 36.253906 52.128906 45.261719 52.761719 54.980469 50.757812 C 55.058594 50.734375 55.105469 50.785156 55.132812 50.859375 C 55.160156 50.9375 55.105469 50.988281 55.03125 51.011719 C 49.398438 52.179688 43.992188 52.457031 40.3125 52.457031 "
        fill-opacity="1" />
    <path fill="#384154"
        d="M 40.390625 52.863281 C 38.15625 52.863281 36.636719 52.761719 36.355469 52.710938 C 36.277344 52.6875 36.253906 52.636719 36.253906 52.558594 C 36.277344 52.484375 36.332031 52.457031 36.40625 52.457031 C 37.089844 52.609375 46.554688 52.964844 54.5 51.316406 C 54.574219 51.292969 54.625 51.34375 54.652344 51.417969 C 54.675781 51.496094 54.625 51.546875 54.550781 51.570312 C 49.527344 52.609375 44.019531 52.863281 40.390625 52.863281 "
        fill-opacity="1" />
    <path fill="#384154"
        d="M 26.816406 50.785156 C 26.511719 50.785156 26.230469 50.886719 26.054688 51.113281 C 25.851562 51.367188 25.800781 51.699219 25.925781 51.953125 C 26.230469 52.535156 26.765625 52.636719 27.652344 52.839844 L 27.675781 52.839844 C 28.488281 53.015625 30.292969 53.015625 30.519531 52.710938 L 30.621094 52.789062 L 30.519531 52.710938 C 30.546875 52.433594 28.617188 51.316406 27.296875 50.886719 C 27.121094 50.808594 26.964844 50.785156 26.816406 50.785156 Z M 29.097656 53.195312 C 28.488281 53.195312 27.90625 53.144531 27.625 53.066406 L 27.601562 53.066406 C 26.6875 52.863281 26.078125 52.738281 25.699219 52.050781 C 25.519531 51.722656 25.597656 51.265625 25.875 50.9375 C 26.230469 50.53125 26.789062 50.40625 27.398438 50.605469 C 28.335938 50.9375 30.597656 52.027344 30.773438 52.609375 C 30.796875 52.6875 30.773438 52.789062 30.722656 52.839844 C 30.519531 53.117188 29.808594 53.195312 29.097656 53.195312 "
        fill-opacity="1" />
    <path fill="#384154"
        d="M 20.371094 55.652344 C 20.371094 55.652344 20.34375 55.652344 20.371094 55.652344 C 20.269531 55.628906 20.242188 55.578125 20.242188 55.5 C 21.003906 51.394531 20.015625 45.890625 19.023438 44.75 C 18.972656 44.699219 18.972656 44.621094 19.023438 44.570312 C 19.074219 44.519531 19.152344 44.519531 19.203125 44.570312 C 20.242188 45.738281 21.257812 51.34375 20.496094 55.527344 C 20.472656 55.628906 20.421875 55.652344 20.371094 55.652344 "
        fill-opacity="1" />
    <path fill="#384154"
        d="M 20.292969 55.375 C 19.734375 55.375 19.226562 54.589844 18.898438 53.195312 C 18.238281 50.457031 18.136719 45.914062 18.921875 45.054688 C 19.074219 44.902344 19.226562 44.875 19.328125 44.902344 C 19.40625 44.902344 19.457031 44.976562 19.429688 45.054688 C 19.429688 45.128906 19.355469 45.179688 19.277344 45.152344 C 19.226562 45.152344 19.175781 45.152344 19.101562 45.230469 C 18.441406 45.964844 18.441406 50.328125 19.125 53.144531 C 19.429688 54.410156 19.914062 55.199219 20.34375 55.121094 C 20.421875 55.097656 20.472656 55.148438 20.496094 55.222656 C 20.519531 55.300781 20.472656 55.351562 20.394531 55.375 C 20.371094 55.375 20.320312 55.375 20.292969 55.375 "
        fill-opacity="1" />
    <path fill="#384154"
        d="M 22.832031 56.210938 C 22.804688 56.210938 22.804688 56.210938 22.78125 56.210938 C 22.703125 56.1875 22.679688 56.109375 22.703125 56.058594 C 23.566406 53.90625 23.492188 51.140625 23.136719 49.238281 C 23.136719 49.164062 23.160156 49.109375 23.238281 49.085938 C 23.3125 49.085938 23.363281 49.109375 23.390625 49.1875 C 23.746094 51.113281 23.820312 53.957031 22.933594 56.136719 C 22.933594 56.1875 22.882812 56.210938 22.832031 56.210938 "
        fill-opacity="1" />
    <path fill="#384154"
        d="M 22.195312 56.238281 C 22.171875 56.238281 22.171875 56.238281 22.144531 56.238281 C 22.070312 56.210938 22.042969 56.136719 22.070312 56.085938 C 22.957031 53.878906 22.679688 49.796875 22.296875 48.121094 C 22.273438 48.046875 22.324219 47.996094 22.398438 47.96875 C 22.476562 47.945312 22.527344 47.996094 22.550781 48.070312 C 22.933594 49.667969 23.261719 53.804688 22.324219 56.1875 C 22.296875 56.210938 22.246094 56.238281 22.195312 56.238281 "
        fill-opacity="1" />
    <path fill="#384154"
        d="M 21.410156 56.3125 C 21.382812 56.3125 21.382812 56.3125 21.359375 56.3125 C 21.28125 56.289062 21.257812 56.210938 21.28125 56.160156 C 22.171875 53.878906 21.941406 48.476562 21.128906 46.246094 C 21.105469 46.167969 21.128906 46.117188 21.207031 46.09375 C 21.28125 46.066406 21.332031 46.09375 21.359375 46.167969 C 22.195312 48.425781 22.425781 53.957031 21.511719 56.261719 C 21.511719 56.289062 21.460938 56.3125 21.410156 56.3125 "
        fill-opacity="1" />
    <path fill="#384154"
        d="M 20.445312 54.945312 C 20.445312 54.945312 20.421875 54.945312 20.445312 54.945312 C 20.21875 54.917969 19.660156 54.664062 19.304688 53.144531 C 18.644531 50.378906 18.59375 46.117188 19.226562 45.460938 C 19.328125 45.332031 19.429688 45.332031 19.507812 45.332031 C 19.582031 45.332031 19.632812 45.40625 19.609375 45.484375 C 19.609375 45.5625 19.53125 45.609375 19.457031 45.585938 C 19.457031 45.585938 19.429688 45.585938 19.378906 45.609375 C 18.871094 46.167969 18.847656 50.277344 19.53125 53.066406 C 19.8125 54.207031 20.191406 54.640625 20.445312 54.691406 C 20.519531 54.691406 20.574219 54.765625 20.546875 54.84375 C 20.546875 54.894531 20.496094 54.945312 20.445312 54.945312 "
        fill-opacity="1" />
    <path fill="#384154"
        d="M 20.496094 50.582031 C 20.421875 50.582031 20.34375 50.554688 20.269531 50.480469 C 19.964844 50.203125 19.964844 49.3125 20.015625 49.058594 C 20.039062 48.984375 20.089844 48.960938 20.167969 48.960938 C 20.242188 48.984375 20.269531 49.035156 20.269531 49.109375 C 20.21875 49.390625 20.269531 50.125 20.445312 50.300781 C 20.472656 50.328125 20.496094 50.328125 20.496094 50.328125 C 20.574219 50.300781 20.625 50.351562 20.648438 50.429688 C 20.671875 50.507812 20.625 50.554688 20.546875 50.582031 C 20.546875 50.582031 20.519531 50.582031 20.496094 50.582031 "
        fill-opacity="1" />
    <path fill="#384154"
        d="M 13.085938 36.277344 L 13.0625 36.277344 C 12.175781 36.023438 11.207031 35.695312 10.5 35.441406 C 10.320312 35.390625 10.167969 35.339844 10.042969 35.289062 C 9.382812 35.0625 9 34.910156 8.875 34.65625 C 8.824219 34.527344 8.824219 34.375 8.902344 34.199219 C 9.101562 33.742188 10.878906 29.761719 12.273438 29.050781 C 13.214844 28.59375 15.167969 29.660156 15.75 30.21875 C 16.511719 30.925781 16.714844 31.5625 16.765625 31.890625 C 16.867188 32.5 16.664062 33.820312 16.460938 35.136719 C 16.460938 35.214844 16.386719 35.265625 16.308594 35.238281 C 16.234375 35.238281 16.183594 35.164062 16.207031 35.085938 C 16.410156 33.792969 16.589844 32.476562 16.511719 31.914062 C 16.460938 31.636719 16.285156 31.054688 15.574219 30.394531 C 14.914062 29.785156 13.113281 28.898438 12.375 29.277344 C 11.285156 29.8125 9.8125 32.703125 9.101562 34.300781 C 9.050781 34.425781 9.050781 34.503906 9.078125 34.554688 C 9.152344 34.707031 9.535156 34.859375 10.09375 35.0625 C 10.21875 35.113281 10.398438 35.164062 10.550781 35.214844 C 11.234375 35.46875 12.199219 35.796875 13.085938 36.023438 C 13.164062 36.050781 13.1875 36.101562 13.164062 36.175781 C 13.1875 36.253906 13.136719 36.277344 13.085938 36.277344 "
        fill-opacity="1" />
    <path fill="#384154"
        d="M 11.566406 35.769531 L 11.539062 35.769531 C 11.464844 35.746094 11.4375 35.695312 11.4375 35.617188 C 12.25 32.476562 13.214844 30.824219 13.746094 29.9375 C 13.875 29.734375 13.976562 29.558594 14.027344 29.429688 C 14.050781 29.378906 14.128906 29.355469 14.203125 29.378906 C 14.253906 29.40625 14.28125 29.480469 14.253906 29.558594 C 14.179688 29.710938 14.078125 29.863281 13.949219 30.089844 C 13.441406 30.953125 12.476562 32.574219 11.664062 35.695312 C 11.664062 35.746094 11.613281 35.769531 11.566406 35.769531 "
        fill-opacity="1" />
    <path fill="#384154"
        d="M 11.285156 35.214844 L 11.261719 35.214844 C 11.183594 35.1875 11.160156 35.136719 11.160156 35.0625 C 11.539062 33.464844 12.375 31.460938 13.59375 29.304688 C 13.621094 29.253906 13.722656 29.203125 13.773438 29.253906 C 13.824219 29.277344 13.847656 29.355469 13.824219 29.40625 L 13.824219 29.429688 C 12.605469 31.5625 11.765625 33.539062 11.410156 35.136719 C 11.386719 35.164062 11.335938 35.214844 11.285156 35.214844 "
        fill-opacity="1" />
    <path fill="#384154"
        d="M 39.25 41.65625 C 37.191406 41.65625 35.390625 41.605469 34.527344 41.554688 C 33.3125 41.476562 32.117188 41.222656 31.230469 40.894531 C 30.925781 40.792969 30.417969 40.539062 29.808594 40.257812 C 29.074219 39.929688 28.261719 39.550781 27.5 39.21875 L 26.964844 38.992188 C 23.492188 37.570312 21.359375 36.660156 21.359375 36.023438 C 21.359375 35.949219 21.410156 35.898438 21.484375 35.898438 C 21.5625 35.898438 21.613281 35.949219 21.613281 36.023438 C 21.613281 36.53125 24.757812 37.824219 27.070312 38.765625 L 27.601562 38.992188 C 28.363281 39.296875 29.199219 39.675781 29.910156 40.03125 C 30.519531 40.3125 31.027344 40.539062 31.304688 40.664062 C 32.167969 40.996094 33.363281 41.222656 34.527344 41.324219 C 35.976562 41.425781 40.238281 41.503906 43.664062 41.324219 C 47.34375 41.148438 51.226562 40.894531 52.191406 40.511719 C 52.671875 40.335938 52.898438 40.109375 52.898438 39.828125 C 52.875 38.558594 48.230469 36.53125 45.792969 35.644531 C 45.71875 35.617188 45.695312 35.542969 45.71875 35.492188 C 45.746094 35.417969 45.820312 35.390625 45.871094 35.417969 C 46.605469 35.695312 53.128906 38.105469 53.152344 39.828125 C 53.152344 40.210938 52.875 40.511719 52.289062 40.742188 C 51.277344 41.148438 47.570312 41.375 43.6875 41.578125 C 42.269531 41.628906 40.695312 41.65625 39.25 41.65625 "
        fill-opacity="1" />
    <path fill="#384154"
        d="M 26.410156 53.398438 C 26.410156 53.398438 26.433594 53.398438 26.410156 53.398438 C 27.90625 53.90625 29.835938 53.929688 31.253906 53.957031 C 32.398438 53.980469 33.160156 53.828125 33.285156 53.777344 C 33.363281 53.75 33.363281 53.726562 33.363281 53.726562 C 33.363281 53.726562 33.363281 53.699219 33.3125 53.625 C 33.234375 53.449219 32.804688 53.195312 32.675781 53.117188 L 32.625 53.09375 C 31.914062 52.636719 30.1875 51.773438 29.277344 51.292969 L 29.148438 51.214844 C 28.234375 50.757812 26.867188 50.050781 25.902344 50.582031 C 25.46875 50.808594 25.214844 51.394531 25.242188 51.976562 C 25.292969 52.332031 25.46875 53.015625 26.410156 53.398438 Z M 31.40625 54.207031 C 31.355469 54.207031 31.304688 54.207031 31.230469 54.207031 C 29.808594 54.183594 27.855469 54.15625 26.332031 53.652344 C 26.332031 53.652344 26.332031 53.652344 26.308594 53.652344 C 26.308594 53.652344 26.308594 53.652344 26.28125 53.652344 C 25.496094 53.347656 25.039062 52.738281 24.960938 52.003906 C 24.910156 51.316406 25.242188 50.660156 25.75 50.378906 C 26.816406 49.769531 28.261719 50.507812 29.226562 51.011719 L 29.351562 51.089844 C 30.265625 51.570312 31.992188 52.433594 32.726562 52.890625 L 32.777344 52.914062 C 33.082031 53.09375 33.414062 53.320312 33.515625 53.523438 C 33.566406 53.625 33.613281 53.726562 33.566406 53.855469 C 33.515625 53.957031 33.414062 54.03125 33.335938 54.058594 C 33.210938 54.058594 32.5 54.207031 31.40625 54.207031 "
        fill-opacity="1" />
    <path fill="#384154"
        d="M 13.847656 35.695312 C 13.492188 35.847656 13.289062 36.023438 13.289062 36.226562 C 13.289062 36.40625 13.441406 36.582031 13.695312 36.710938 C 14.101562 36.914062 14.863281 36.964844 14.964844 36.964844 C 15.800781 37.015625 16.640625 36.988281 16.792969 36.304688 C 16.84375 36.125 16.867188 35.746094 16.691406 35.492188 C 16.613281 35.363281 16.488281 35.316406 16.308594 35.289062 C 15.878906 35.265625 14.683594 35.390625 13.847656 35.695312 Z M 15.472656 37.214844 C 15.269531 37.214844 15.089844 37.191406 14.941406 37.191406 C 14.789062 37.191406 14.027344 37.140625 13.570312 36.914062 C 13.214844 36.734375 13.011719 36.457031 13.011719 36.203125 C 13.011719 36 13.136719 35.695312 13.722656 35.46875 C 14.609375 35.136719 15.828125 35.011719 16.285156 35.0625 C 16.539062 35.085938 16.714844 35.1875 16.84375 35.363281 C 17.070312 35.671875 17.042969 36.152344 16.996094 36.378906 C 16.867188 37.089844 16.082031 37.214844 15.472656 37.214844 "
        fill-opacity="1" />
    <path fill="#384154"
        d="M 16.816406 37.417969 C 16.460938 37.417969 16.054688 37.316406 15.699219 37.214844 C 15.625 37.191406 15.597656 37.117188 15.625 37.066406 C 15.648438 36.988281 15.726562 36.964844 15.777344 36.988281 C 16.257812 37.117188 16.917969 37.292969 17.222656 37.089844 C 17.5 36.914062 17.757812 35.796875 17.65625 35.644531 C 17.578125 35.59375 17.300781 35.644531 16.996094 35.769531 C 16.917969 35.796875 16.867188 35.769531 16.816406 35.71875 C 16.792969 35.644531 16.816406 35.59375 16.867188 35.542969 C 17.070312 35.441406 17.554688 35.265625 17.808594 35.46875 C 17.882812 35.542969 17.90625 35.671875 17.90625 35.871094 C 17.882812 36.277344 17.679688 37.117188 17.351562 37.316406 C 17.199219 37.394531 17.019531 37.417969 16.816406 37.417969 "
        fill-opacity="1" />
    <path fill="#384154"
        d="M 14.355469 36.835938 C 14.027344 36.835938 13.671875 36.8125 13.367188 36.734375 C 13.289062 36.710938 13.265625 36.660156 13.265625 36.582031 C 13.289062 36.507812 13.339844 36.480469 13.417969 36.480469 C 14.738281 36.761719 16.285156 36.328125 16.816406 36.101562 C 16.894531 36.074219 16.945312 36.101562 16.996094 36.152344 C 17.019531 36.226562 16.996094 36.277344 16.945312 36.328125 C 16.488281 36.53125 15.445312 36.835938 14.355469 36.835938 "
        fill-opacity="1" />
    <path fill="#384154"
        d="M 45.492188 35.417969 C 45.441406 35.417969 45.390625 35.390625 45.363281 35.316406 C 45.261719 34.882812 44.753906 34.171875 43.992188 33.386719 C 42.472656 31.765625 39.859375 29.609375 38.308594 28.671875 C 36.40625 27.503906 35.417969 27.046875 33.539062 26.820312 C 30.292969 26.414062 24.253906 26.640625 22.222656 26.769531 C 19.023438 26.96875 14.761719 27.554688 13.164062 28.238281 C 13.085938 28.265625 11.464844 29 10.726562 30.191406 C 10.042969 31.332031 9.761719 31.839844 8.390625 34.757812 C 8.367188 34.832031 8.292969 34.859375 8.214844 34.808594 C 8.140625 34.78125 8.113281 34.707031 8.164062 34.628906 C 9.535156 31.6875 9.8125 31.179688 10.5 30.039062 C 11.261719 28.769531 12.859375 28.0625 13.0625 27.984375 C 14.710938 27.273438 18.898438 26.691406 22.195312 26.488281 C 24.253906 26.363281 30.292969 26.132812 33.566406 26.539062 C 35.492188 26.792969 36.53125 27.25 38.4375 28.417969 C 40.011719 29.378906 42.625 31.5625 44.171875 33.183594 C 44.957031 33.996094 45.464844 34.757812 45.59375 35.214844 C 45.617188 35.289062 45.566406 35.339844 45.492188 35.363281 C 45.515625 35.417969 45.492188 35.417969 45.492188 35.417969 "
        fill-opacity="1" />
    <path fill="#384154"
        d="M 9.457031 42.921875 C 9.382812 42.921875 9.332031 42.871094 9.332031 42.796875 C 9.027344 39.652344 9.761719 38.28125 10.371094 37.167969 C 10.652344 36.660156 10.90625 36.175781 11.03125 35.59375 C 11.058594 35.519531 11.109375 35.492188 11.183594 35.492188 C 11.261719 35.519531 11.285156 35.566406 11.285156 35.644531 C 11.160156 36.277344 10.878906 36.761719 10.601562 37.292969 C 9.992188 38.433594 9.28125 39.703125 9.585938 42.769531 C 9.585938 42.847656 9.535156 42.898438 9.457031 42.921875 C 9.484375 42.921875 9.457031 42.921875 9.457031 42.921875 "
        fill-opacity="1" />
    <path fill="#384154"
        d="M 17.628906 50.960938 C 17.605469 50.960938 17.605469 50.960938 17.605469 50.960938 C 17.578125 50.960938 15.597656 50.328125 14.101562 49.59375 C 12.402344 48.757812 11.464844 48.148438 11.082031 47.640625 C 10.777344 47.234375 10.550781 46.296875 10.320312 45.460938 C 10.246094 45.152344 10.167969 44.902344 10.117188 44.699219 C 9.585938 42.972656 8.902344 41.882812 8.039062 41.476562 C 7.53125 41.222656 6.972656 41.222656 6.335938 41.425781 C 6.261719 41.453125 6.210938 41.425781 6.183594 41.351562 C 6.160156 41.273438 6.183594 41.222656 6.261719 41.199219 C 6.945312 40.945312 7.582031 40.96875 8.164062 41.25 C 9.078125 41.707031 9.8125 42.847656 10.371094 44.621094 C 10.449219 44.824219 10.5 45.105469 10.574219 45.40625 C 10.777344 46.167969 11.03125 47.132812 11.285156 47.511719 C 11.640625 47.996094 12.554688 48.578125 14.230469 49.390625 C 15.625 50.074219 17.425781 50.660156 17.65625 50.734375 L 17.984375 50.683594 C 18.058594 50.683594 18.109375 50.707031 18.136719 50.785156 C 18.136719 50.859375 18.109375 50.910156 18.035156 50.9375 L 17.628906 50.960938 C 17.65625 50.960938 17.628906 50.960938 17.628906 50.960938 "
        fill-opacity="1" />
    <path fill="#384154"
        d="M 8.699219 50.175781 C 8.214844 50.175781 7.785156 50.023438 7.429688 49.71875 C 6.71875 49.136719 6.261719 47.96875 6.109375 46.296875 C 6.109375 46.195312 6.085938 46.066406 6.085938 45.941406 C 5.980469 44.925781 5.804688 43.226562 6.183594 41.707031 C 6.210938 41.628906 6.261719 41.605469 6.335938 41.605469 C 6.414062 41.628906 6.4375 41.679688 6.4375 41.757812 C 6.085938 43.253906 6.261719 44.902344 6.363281 45.914062 C 6.386719 46.042969 6.386719 46.167969 6.386719 46.269531 C 6.539062 47.867188 6.945312 48.960938 7.605469 49.515625 C 7.984375 49.820312 8.445312 49.949219 8.949219 49.898438 C 9.078125 49.871094 9.203125 49.871094 9.355469 49.871094 C 9.941406 49.847656 10.5 49.820312 10.753906 49.085938 C 10.878906 48.707031 11.003906 48.273438 11.058594 47.589844 C 11.058594 47.511719 11.132812 47.464844 11.183594 47.464844 C 11.261719 47.464844 11.3125 47.539062 11.3125 47.589844 C 11.261719 48.300781 11.109375 48.757812 10.980469 49.164062 C 10.703125 50.050781 9.992188 50.101562 9.355469 50.125 C 9.230469 50.125 9.101562 50.125 8.976562 50.152344 C 8.875 50.152344 8.796875 50.175781 8.699219 50.175781 "
        fill-opacity="1" />
    <path fill="#384154"
        d="M 7.960938 49.644531 C 7.960938 49.644531 7.9375 49.644531 7.960938 49.644531 C 7.859375 49.617188 7.835938 49.566406 7.835938 49.492188 C 8.417969 46.347656 7.65625 42.136719 6.894531 41.25 C 6.84375 41.199219 6.84375 41.121094 6.894531 41.070312 C 6.945312 41.019531 7.023438 41.019531 7.074219 41.070312 C 7.859375 41.984375 8.671875 46.296875 8.0625 49.515625 C 8.0625 49.59375 8.011719 49.644531 7.960938 49.644531 "
        fill-opacity="1" />
    <path fill="#384154"
        d="M 7.886719 49.414062 C 7.453125 49.414062 7.023438 48.804688 6.769531 47.714844 C 6.261719 45.585938 6.183594 42.085938 6.792969 41.425781 C 6.921875 41.300781 7.046875 41.273438 7.125 41.300781 C 7.199219 41.300781 7.25 41.375 7.226562 41.453125 C 7.226562 41.527344 7.148438 41.578125 7.074219 41.554688 C 7.046875 41.554688 6.996094 41.554688 6.945312 41.605469 C 6.4375 42.164062 6.464844 45.511719 6.972656 47.664062 C 7.226562 48.78125 7.605469 49.210938 7.886719 49.164062 C 7.960938 49.136719 8.011719 49.1875 8.039062 49.261719 C 8.0625 49.339844 8.011719 49.390625 7.9375 49.414062 C 7.960938 49.414062 7.9375 49.414062 7.886719 49.414062 "
        fill-opacity="1" />
    <path fill="#384154"
        d="M 9.863281 50.074219 C 9.839844 50.074219 9.839844 50.074219 9.8125 50.074219 C 9.738281 50.050781 9.710938 49.972656 9.738281 49.921875 C 10.449219 48.148438 10.269531 45.6875 10.042969 44.519531 C 10.042969 44.445312 10.066406 44.394531 10.144531 44.367188 C 10.21875 44.367188 10.269531 44.394531 10.296875 44.46875 C 10.523438 45.660156 10.703125 48.171875 9.964844 50.023438 C 9.941406 50.050781 9.914062 50.074219 9.863281 50.074219 "
        fill-opacity="1" />
    <path fill="#384154"
        d="M 9.355469 50.101562 C 9.332031 50.101562 9.332031 50.101562 9.304688 50.101562 C 9.230469 50.074219 9.203125 50 9.230469 49.949219 C 9.890625 48.273438 9.738281 44.851562 9.203125 42.644531 C 9.179688 42.566406 9.230469 42.515625 9.304688 42.492188 C 9.382812 42.464844 9.433594 42.515625 9.457031 42.59375 C 10.015625 44.902344 10.167969 48.300781 9.484375 50.050781 C 9.457031 50.050781 9.40625 50.101562 9.355469 50.101562 "
        fill-opacity="1" />
    <path fill="#384154"
        d="M 8.773438 50.152344 C 8.75 50.152344 8.75 50.152344 8.722656 50.152344 C 8.644531 50.125 8.621094 50.050781 8.644531 50 C 9.28125 48.375 9.230469 44.191406 8.265625 41.605469 C 8.242188 41.527344 8.265625 41.476562 8.339844 41.453125 C 8.417969 41.425781 8.46875 41.453125 8.496094 41.527344 C 9.40625 43.9375 9.609375 48.273438 8.875 50.101562 C 8.875 50.125 8.824219 50.152344 8.773438 50.152344 "
        fill-opacity="1" />
    <path fill="#384154"
        d="M 8.011719 49.085938 C 7.808594 49.058594 7.378906 48.882812 7.097656 47.664062 C 6.589844 45.535156 6.566406 42.261719 7.046875 41.730469 C 7.148438 41.628906 7.226562 41.628906 7.300781 41.628906 C 7.378906 41.628906 7.429688 41.707031 7.402344 41.78125 C 7.402344 41.859375 7.328125 41.910156 7.25 41.882812 L 7.277344 41.757812 L 7.25 41.882812 C 7.25 41.882812 7.226562 41.882812 7.199219 41.933594 C 6.84375 42.492188 6.84375 45.535156 7.351562 47.613281 C 7.632812 48.757812 7.984375 48.832031 8.039062 48.832031 C 8.113281 48.832031 8.164062 48.910156 8.140625 48.984375 C 8.140625 49.035156 8.089844 49.085938 8.011719 49.085938 "
        fill-opacity="1" />
    <path fill="#384154"
        d="M 8.0625 45.738281 C 7.984375 45.738281 7.9375 45.714844 7.886719 45.660156 C 7.65625 45.433594 7.65625 44.722656 7.683594 44.546875 C 7.707031 44.46875 7.757812 44.417969 7.835938 44.445312 C 7.910156 44.46875 7.9375 44.519531 7.9375 44.597656 C 7.886719 44.875 7.984375 45.484375 8.089844 45.484375 C 8.164062 45.460938 8.214844 45.511719 8.242188 45.585938 C 8.265625 45.660156 8.214844 45.714844 8.140625 45.738281 C 8.089844 45.738281 8.0625 45.738281 8.0625 45.738281 "
        fill-opacity="1" />
    <path fill="#384154"
        d="M 53.710938 43.480469 C 53.609375 43.480469 53.535156 43.457031 53.457031 43.40625 C 53.28125 43.253906 53.332031 42.949219 53.40625 42.746094 C 53.457031 42.515625 53.535156 42.261719 53.609375 42.011719 C 53.761719 41.453125 53.941406 40.894531 53.941406 40.617188 C 53.941406 40.539062 53.992188 40.488281 54.066406 40.488281 C 54.144531 40.488281 54.195312 40.539062 54.195312 40.617188 C 54.195312 40.945312 54.042969 41.503906 53.863281 42.085938 C 53.789062 42.316406 53.710938 42.566406 53.660156 42.796875 C 53.585938 43.125 53.636719 43.203125 53.636719 43.203125 C 53.710938 43.277344 54.117188 43.125 54.371094 43.023438 C 54.753906 42.871094 55.105469 42.59375 55.105469 42.59375 C 55.160156 42.542969 55.234375 42.566406 55.285156 42.617188 C 55.335938 42.667969 55.308594 42.746094 55.261719 42.796875 C 55.234375 42.796875 54.878906 43.101562 54.449219 43.253906 C 54.167969 43.378906 53.914062 43.480469 53.710938 43.480469 "
        fill-opacity="1" />
    <path fill="#384154"
        d="M 40.289062 55.957031 C 36.8125 55.957031 33.917969 55.78125 31.839844 55.605469 C 27.167969 55.171875 24.988281 54.511719 24.480469 53.398438 C 24.457031 53.320312 24.480469 53.269531 24.554688 53.21875 C 24.632812 53.195312 24.683594 53.21875 24.734375 53.296875 C 25.164062 54.3125 27.371094 54.945312 31.863281 55.351562 C 35.1875 55.652344 40.515625 55.933594 46.988281 55.5 C 51.859375 55.171875 54.269531 54.460938 54.703125 54.058594 C 54.753906 54.003906 54.828125 54.003906 54.878906 54.058594 C 54.929688 54.109375 54.929688 54.183594 54.878906 54.234375 C 54.347656 54.742188 51.632812 55.453125 47.011719 55.753906 C 44.578125 55.90625 42.320312 55.957031 40.289062 55.957031 "
        fill-opacity="1" />
    <path fill="#384154"
        d="M 47.953125 56.1875 C 47.164062 56.1875 46.023438 56.136719 45.820312 55.832031 C 45.769531 55.78125 45.792969 55.703125 45.847656 55.652344 C 45.898438 55.605469 45.972656 55.628906 46.023438 55.679688 C 46.125 55.808594 47.011719 55.984375 48.613281 55.933594 C 50.515625 55.859375 51.988281 55.5 52.0625 55.097656 C 52.085938 55.019531 52.140625 54.996094 52.214844 54.996094 C 52.289062 55.019531 52.316406 55.070312 52.316406 55.148438 C 52.140625 56.007812 49.195312 56.160156 48.613281 56.1875 C 48.511719 56.1875 48.257812 56.1875 47.953125 56.1875 "
        fill-opacity="1" />
    <g clip-path="url(#id4)">
        <path fill="#ffedde"
            d="M 63.835938 48.78125 L 65.96875 44.417969 C 65.96875 44.417969 67.515625 41.984375 68.9375 39.726562 C 70.003906 38.054688 70.890625 36.328125 71.675781 36.632812 C 73.53125 37.292969 71.726562 41.199219 70.207031 44.875 C 69.039062 47.664062 68.199219 50.53125 68.199219 50.53125 C 68.199219 50.53125 68.808594 51.0625 68.785156 52.230469 C 68.757812 53.371094 68.125 55.148438 67.921875 56.136719 C 67.515625 58.164062 66.550781 58.671875 66.550781 58.671875 C 66.550781 58.671875 67.59375 60.449219 69.265625 58.902344 C 71.171875 57.152344 73.835938 52.128906 75.484375 53.574219 C 76.550781 54.511719 75.230469 56.035156 74.847656 57.125 C 74.136719 59.203125 72.945312 61.15625 70.484375 64.632812 C 69.800781 65.597656 68.886719 66.941406 68.097656 67.851562 C 66.296875 69.90625 64.039062 70.617188 62.566406 71.835938 C 61.097656 73.078125 60.386719 74.828125 60.386719 74.828125 C 60.386719 74.828125 56.503906 75.003906 52.695312 74.929688 C 48.890625 74.878906 45.136719 74.574219 45.136719 74.574219 C 45.136719 74.574219 47.597656 71.632812 49.015625 66.484375 C 50.160156 62.324219 49.984375 56.136719 51.886719 53.347656 C 53.253906 51.34375 54.5 51.875 55.96875 51.292969 C 57.519531 50.683594 58.179688 49.796875 59.320312 49.515625 C 60.460938 49.238281 62.085938 49.566406 62.085938 49.566406 L 63.835938 48.78125 "
            fill-opacity="1" />
    </g>
    <path fill="#ffedde"
        d="M 80.203125 34.578125 L 84.007812 32.09375 C 84.007812 32.09375 84.492188 32.371094 84.921875 32.726562 C 85.355469 33.109375 85.785156 33.566406 85.785156 33.566406 C 85.785156 33.566406 86.066406 32.929688 85.609375 31.257812 C 85.378906 30.445312 84.464844 29.226562 84.363281 28.316406 C 84.210938 27.125 84.238281 25.652344 84.644531 24.789062 C 85.050781 23.953125 85.53125 24.027344 85.886719 24.15625 C 86.496094 24.359375 86.976562 25.601562 87.917969 26.71875 C 88.652344 27.605469 89.71875 28.417969 90.226562 29.683594 C 90.632812 30.671875 90.582031 31.96875 90.835938 33.234375 C 90.910156 33.664062 91.292969 35.1875 91.46875 35.898438 C 91.699219 36.914062 91.902344 37.824219 91.773438 38.992188 C 91.621094 40.285156 91.265625 43.785156 91.242188 46.675781 C 91.242188 48.199219 91.292969 49.542969 91.46875 50.253906 C 91.699219 51.113281 91.824219 51.394531 92.078125 52.15625 C 93.019531 54.84375 94.3125 57.175781 95.378906 59.355469 C 97.558594 63.898438 99.03125 66.964844 99.03125 66.964844 C 99.03125 66.964844 97.28125 68.082031 93.90625 69.273438 C 90.53125 70.464844 85.53125 71.707031 85.53125 71.707031 C 85.53125 71.707031 84.59375 68.640625 82.765625 64.632812 C 82.003906 62.957031 80.9375 60.957031 79.949219 59.179688 C 79.214844 57.886719 78.402344 57.277344 77.714844 56.617188 C 76.855469 55.78125 75.839844 54.664062 74.976562 53.523438 C 74.035156 52.28125 73.351562 50.859375 72.742188 49.441406 C 72.386719 48.605469 72.03125 47.640625 72.03125 47.640625 L 66.042969 43 C 66.042969 43 65.382812 42.921875 64.800781 42.464844 C 64.34375 42.085938 63.886719 41.476562 63.9375 41.046875 C 64.066406 39.472656 66.324219 39.121094 66.324219 39.121094 L 66.398438 38.613281 C 66.398438 38.613281 65.535156 39.09375 64.800781 38.96875 C 64.292969 38.867188 63.886719 38.460938 63.8125 37.75 C 63.761719 37.265625 64.191406 36.304688 64.929688 35.671875 C 65.6875 35.035156 66.753906 34.628906 66.753906 34.628906 L 66.832031 34.121094 C 66.832031 34.121094 66.09375 34.097656 65.511719 33.792969 C 65.128906 33.589844 64.800781 33.210938 64.800781 32.878906 C 64.800781 32.421875 64.902344 32.070312 65.207031 31.765625 C 65.890625 31.003906 67.183594 30.574219 67.183594 30.574219 L 67.160156 30.191406 C 67.160156 30.191406 66.578125 30.242188 66.171875 29.863281 C 65.96875 29.660156 65.765625 29.175781 65.765625 28.796875 C 65.738281 27.65625 67.515625 26.769531 67.515625 26.769531 L 80.203125 34.578125 "
        fill-opacity="1" />
    <path fill="#6f899e"
        d="M 68.707031 13.757812 C 68.707031 13.757812 68.9375 13.046875 69.394531 12.769531 C 69.851562 12.464844 70.535156 12.539062 70.535156 12.539062 L 84.71875 13.808594 C 84.71875 13.808594 85.277344 13.933594 85.480469 14.289062 C 85.683594 14.644531 85.582031 15.253906 85.582031 15.253906 L 84.769531 24.511719 C 84.769531 24.511719 84.390625 25.195312 84.3125 26.183594 C 84.238281 27.148438 84.390625 28.492188 84.390625 28.492188 L 83.25 40.257812 C 83.25 40.257812 82.359375 42.390625 81.648438 44.445312 C 80.9375 46.5 80.457031 48.503906 80.457031 48.503906 L 69.265625 47.4375 C 69.265625 47.4375 69.292969 47.15625 69.648438 46.195312 C 70.410156 44.191406 72.183594 40.816406 72.539062 38.664062 C 72.742188 37.496094 72.566406 36.328125 71.21875 36.175781 C 69.875 36.023438 65.96875 44.417969 65.96875 44.417969 L 68.707031 13.757812 "
        fill-opacity="1" />
    <path fill="#ffffff"
        d="M 69.140625 14.1875 C 69.140625 14.1875 69.242188 13.605469 69.519531 13.351562 C 69.800781 13.097656 70.308594 13.046875 70.308594 13.046875 L 73.835938 13.378906 L 74.519531 13.960938 L 75.253906 14.0625 L 79.46875 14.417969 L 79.949219 14.316406 L 80.457031 13.984375 L 84.464844 14.289062 C 84.464844 14.289062 84.847656 14.390625 85 14.671875 C 85.152344 14.949219 85.101562 15.429688 85.101562 15.429688 L 82.664062 41.554688 C 82.664062 41.554688 82.03125 43.203125 81.546875 44.773438 C 81.066406 46.347656 80.660156 47.816406 80.660156 47.816406 L 69.417969 46.777344 C 69.417969 46.777344 71.066406 43 71.929688 40.285156 C 72.285156 39.195312 72.488281 38.003906 72.4375 37.671875 C 72.285156 36.835938 71.675781 36.253906 71.171875 36.710938 C 70.96875 36.886719 70.511719 37.292969 70.28125 37.597656 C 69.570312 38.511719 68.988281 39.703125 68.277344 40.816406 C 67.339844 42.289062 66.527344 43.355469 66.527344 43.355469 L 69.140625 14.1875 "
        fill-opacity="1" />
    <path fill="#aad896"
        d="M 68.734375 38.128906 C 68.609375 37.445312 68.910156 36.125 68.910156 36.125 C 68.910156 36.125 69.0625 35.746094 69.316406 35.566406 C 69.570312 35.363281 69.925781 35.363281 69.925781 35.363281 L 79.898438 36.304688 C 79.898438 36.304688 80.355469 36.355469 80.632812 36.609375 C 80.886719 36.863281 80.9375 37.34375 80.9375 37.34375 L 80.835938 39.015625 C 80.835938 39.015625 80.6875 39.421875 80.433594 39.625 C 80.152344 39.828125 79.773438 39.878906 79.773438 39.878906 L 72.3125 39.246094 C 72.3125 39.246094 72.539062 38.105469 72.3125 37.34375 C 72.210938 36.9375 71.777344 36.660156 71.550781 36.632812 C 70.816406 36.53125 69.417969 38.890625 69.417969 38.890625 C 69.417969 38.890625 68.835938 38.8125 68.734375 38.128906 "
        fill-opacity="1" />
    <path fill="#c8d1e5"
        d="M 69.316406 31.410156 C 69.34375 31.105469 69.953125 30.773438 71.144531 30.597656 C 72.210938 30.445312 73.757812 30.445312 75.332031 30.574219 C 78.65625 30.824219 81.394531 31.789062 81.34375 32.347656 C 81.320312 32.523438 81.34375 32.777344 80.988281 32.929688 C 80.101562 33.3125 78.046875 33.488281 75.710938 33.3125 C 73.960938 33.160156 72.234375 32.878906 71.042969 32.476562 C 69.925781 32.144531 69.292969 31.6875 69.316406 31.410156 "
        fill-opacity="1" />
    <path fill="#8a98b7"
        d="M 70.308594 31.28125 C 70.410156 30.800781 71.753906 30.902344 73.351562 30.925781 C 74.164062 30.953125 75 31.054688 75.789062 31.054688 C 76.398438 31.054688 76.929688 31.15625 77.488281 31.230469 C 79.113281 31.460938 80.40625 31.941406 80.40625 32.273438 C 80.40625 32.703125 78.78125 32.726562 76.398438 32.652344 C 73.785156 32.574219 70.207031 31.765625 70.308594 31.28125 "
        fill-opacity="1" />
    <path fill="#ffffff"
        d="M 24.960938 8.6875 C 26.207031 8.582031 27.574219 9.546875 27.652344 10.6875 C 27.730469 11.855469 27.167969 13.023438 25.367188 13.351562 C 24.148438 13.554688 22.832031 12.414062 22.679688 11.144531 C 22.550781 10.003906 23.71875 8.789062 24.960938 8.6875 Z M 25.0625 6.480469 C 23.667969 6.480469 22.222656 7.136719 21.308594 8.253906 C 20.574219 9.167969 20.191406 10.183594 20.242188 11.628906 C 20.269531 12.792969 21.128906 15.382812 22.144531 17.484375 C 23.464844 20.199219 24.988281 22.40625 24.988281 22.40625 C 24.988281 22.40625 26.964844 19.640625 28.4375 16.472656 C 29.277344 14.621094 29.9375 12.234375 29.9375 11.246094 C 29.9375 9.980469 29.429688 8.835938 28.617188 8 C 27.730469 7.039062 26.410156 6.480469 25.0625 6.480469 "
        fill-opacity="1" />
    <path fill="#384154"
        d="M 99.003906 67.09375 C 98.957031 67.09375 98.90625 67.066406 98.878906 67.015625 C 98.144531 65.417969 97.179688 63.441406 96.164062 61.335938 C 93.855469 56.644531 91.46875 51.773438 91.242188 49.847656 C 91.011719 48.046875 91.0625 44.445312 91.242188 42.542969 C 91.292969 42.011719 91.34375 41.527344 91.417969 41.070312 C 91.546875 40.058594 91.671875 39.121094 91.621094 37.953125 C 91.570312 36.9375 91.164062 35.011719 90.859375 33.996094 C 90.65625 33.261719 90.554688 32.523438 90.453125 31.816406 C 90.328125 30.851562 90.203125 29.9375 89.820312 29.277344 C 89.515625 28.746094 89.035156 28.238281 88.550781 27.730469 C 88.195312 27.375 87.839844 26.996094 87.585938 26.617188 C 87.359375 26.3125 87.183594 26.007812 86.976562 25.703125 C 86.34375 24.6875 85.914062 24.054688 85.253906 24.308594 C 84.390625 24.613281 84.289062 27.402344 84.515625 28.390625 C 84.667969 29.078125 84.871094 29.40625 85.125 29.8125 C 85.304688 30.117188 85.507812 30.46875 85.710938 30.976562 C 86.214844 32.347656 86.066406 35.390625 85.785156 36.304688 C 85.480469 37.242188 85 37.953125 84.464844 38.6875 C 84.1875 39.066406 83.90625 39.449219 83.652344 39.90625 C 82.765625 41.425781 81.953125 43.886719 81.371094 45.660156 L 81.269531 45.941406 C 80.914062 47.007812 80.355469 49.71875 80.332031 51.039062 C 80.332031 51.113281 80.28125 51.164062 80.203125 51.164062 C 80.125 51.164062 80.078125 51.113281 80.078125 51.039062 C 80.101562 49.695312 80.660156 46.957031 81.015625 45.863281 L 81.117188 45.585938 C 81.699219 43.785156 82.511719 41.324219 83.425781 39.777344 C 83.679688 39.320312 83.957031 38.941406 84.238281 38.558594 C 84.746094 37.851562 85.226562 37.167969 85.507812 36.253906 C 85.785156 35.390625 85.914062 32.398438 85.429688 31.105469 C 85.253906 30.597656 85.050781 30.269531 84.871094 29.964844 C 84.644531 29.558594 84.414062 29.175781 84.238281 28.46875 C 83.984375 27.402344 84.058594 24.484375 85.125 24.105469 C 86.015625 23.773438 86.546875 24.636719 87.15625 25.601562 C 87.332031 25.90625 87.535156 26.210938 87.738281 26.515625 C 87.992188 26.871094 88.347656 27.222656 88.703125 27.605469 C 89.1875 28.113281 89.691406 28.644531 89.996094 29.203125 C 90.402344 29.914062 90.53125 30.851562 90.65625 31.839844 C 90.757812 32.550781 90.859375 33.261719 91.0625 33.972656 C 91.34375 34.984375 91.773438 36.9375 91.824219 37.976562 C 91.875 39.167969 91.75 40.132812 91.621094 41.148438 C 91.570312 41.605469 91.496094 42.085938 91.445312 42.617188 C 91.265625 44.496094 91.242188 48.070312 91.445312 49.871094 C 91.671875 51.773438 94.160156 56.820312 96.339844 61.285156 C 97.355469 63.363281 98.34375 65.34375 99.058594 66.964844 C 99.082031 67.042969 99.058594 67.09375 98.980469 67.144531 C 99.058594 67.09375 99.03125 67.09375 99.003906 67.09375 "
        fill-opacity="1" />
    <path fill="#384154"
        d="M 85.886719 33.867188 C 85.835938 33.867188 85.8125 33.84375 85.785156 33.820312 C 85.304688 33.132812 83.957031 32.195312 83.933594 32.167969 C 83.882812 32.121094 83.855469 32.042969 83.90625 31.992188 C 83.957031 31.941406 84.035156 31.914062 84.085938 31.96875 C 84.136719 32.019531 85.480469 32.957031 85.988281 33.664062 C 86.039062 33.71875 86.015625 33.792969 85.964844 33.84375 C 85.9375 33.867188 85.914062 33.867188 85.886719 33.867188 "
        fill-opacity="1" />
    <path fill="#384154"
        d="M 66.957031 30.292969 C 66.425781 30.292969 65.96875 29.863281 65.839844 29.632812 C 65.613281 29.226562 65.5625 28.824219 65.664062 28.417969 C 65.839844 27.78125 66.425781 27.199219 67.414062 26.691406 C 67.464844 26.667969 67.542969 26.691406 67.59375 26.742188 C 67.617188 26.792969 67.59375 26.871094 67.542969 26.921875 C 66.628906 27.402344 66.070312 27.933594 65.917969 28.492188 C 65.816406 28.824219 65.867188 29.175781 66.070312 29.507812 C 66.171875 29.683594 66.628906 30.140625 67.136719 30.015625 C 67.210938 29.988281 67.261719 30.039062 67.289062 30.117188 C 67.3125 30.191406 67.261719 30.242188 67.183594 30.269531 C 67.109375 30.269531 67.035156 30.292969 66.957031 30.292969 "
        fill-opacity="1" />
    <path fill="#384154"
        d="M 66.78125 34.25 C 66.347656 34.222656 65.335938 34.070312 64.878906 33.4375 C 64.648438 33.109375 64.597656 32.703125 64.726562 32.246094 C 64.976562 31.359375 66.171875 30.773438 67.109375 30.417969 C 67.183594 30.394531 67.238281 30.417969 67.261719 30.496094 C 67.289062 30.574219 67.261719 30.621094 67.183594 30.648438 C 66.449219 30.925781 65.207031 31.484375 64.953125 32.324219 C 64.851562 32.703125 64.878906 33.03125 65.054688 33.285156 C 65.433594 33.84375 66.375 33.972656 66.753906 33.996094 C 66.832031 33.996094 66.882812 34.070312 66.882812 34.121094 C 66.90625 34.199219 66.832031 34.25 66.78125 34.25 "
        fill-opacity="1" />
    <path fill="#384154"
        d="M 65.128906 39.09375 C 64.976562 39.09375 64.851562 39.066406 64.699219 39.042969 C 64.292969 38.96875 64.015625 38.765625 63.886719 38.484375 C 63.53125 37.773438 63.785156 36.710938 64.574219 35.820312 C 65.382812 34.910156 66.703125 34.476562 66.753906 34.476562 C 66.832031 34.453125 66.882812 34.503906 66.90625 34.554688 C 66.933594 34.605469 66.882812 34.679688 66.832031 34.707031 C 66.804688 34.707031 65.511719 35.136719 64.75 36 C 63.9375 36.914062 63.835938 37.851562 64.089844 38.359375 C 64.21875 38.636719 64.519531 38.738281 64.75 38.789062 C 65.28125 38.890625 66.019531 38.738281 66.375 38.433594 C 66.425781 38.382812 66.5 38.382812 66.550781 38.460938 C 66.601562 38.511719 66.601562 38.585938 66.527344 38.636719 C 66.222656 38.941406 65.636719 39.09375 65.128906 39.09375 "
        fill-opacity="1" />
    <path fill="#384154"
        d="M 74.796875 53.449219 C 74.746094 53.449219 74.722656 53.421875 74.695312 53.398438 C 73.707031 52.105469 72.742188 49.71875 72.234375 48.425781 C 72.132812 48.199219 72.058594 47.996094 72.007812 47.867188 C 71.980469 47.792969 72.007812 47.742188 72.082031 47.691406 C 72.160156 47.664062 72.210938 47.691406 72.261719 47.765625 C 72.3125 47.894531 72.386719 48.097656 72.488281 48.324219 C 72.972656 49.515625 73.960938 51.976562 74.925781 53.246094 C 74.976562 53.296875 74.949219 53.371094 74.898438 53.421875 C 74.847656 53.449219 74.824219 53.449219 74.796875 53.449219 "
        fill-opacity="1" />
    <path fill="#384154"
        d="M 85.53125 71.757812 C 85.480469 71.757812 85.429688 71.734375 85.40625 71.65625 C 84.007812 66.863281 80.355469 59.941406 79.644531 58.875 C 79.214844 58.191406 78.402344 57.402344 77.640625 56.644531 C 76.929688 55.933594 76.167969 55.199219 75.738281 54.5625 C 75.6875 54.511719 75.710938 54.4375 75.761719 54.386719 C 75.8125 54.335938 75.890625 54.359375 75.941406 54.410156 C 76.371094 55.046875 77.109375 55.753906 77.816406 56.464844 C 78.605469 57.226562 79.417969 58.039062 79.875 58.722656 C 80.582031 59.789062 84.261719 66.761719 85.660156 71.582031 C 85.683594 71.65625 85.632812 71.707031 85.582031 71.734375 C 85.558594 71.757812 85.53125 71.757812 85.53125 71.757812 "
        fill-opacity="1" />
    <path fill="#384154"
        d="M 65.992188 43.152344 C 65.96875 43.152344 65.96875 43.152344 65.992188 43.152344 C 64.902344 43 63.835938 42.136719 63.914062 40.945312 C 64.015625 39.296875 66.273438 38.96875 66.375 38.941406 C 66.449219 38.941406 66.5 38.992188 66.527344 39.042969 C 66.527344 39.121094 66.476562 39.167969 66.425781 39.195312 C 66.398438 39.195312 64.269531 39.523438 64.191406 40.945312 C 64.140625 41.960938 65.105469 42.746094 66.042969 42.871094 C 66.121094 42.871094 66.171875 42.949219 66.144531 43.023438 C 66.09375 43.101562 66.042969 43.152344 65.992188 43.152344 "
        fill-opacity="1" />
    <path fill="#384154"
        d="M 80.535156 48.628906 L 69.242188 47.589844 C 69.164062 47.589844 69.113281 47.511719 69.113281 47.464844 C 69.113281 47.386719 69.191406 47.335938 69.242188 47.335938 L 80.507812 48.375 C 80.582031 48.375 80.632812 48.453125 80.632812 48.503906 C 80.660156 48.578125 80.582031 48.628906 80.535156 48.628906 "
        fill-opacity="1" />
    <path fill="#384154"
        d="M 65.917969 44.597656 C 65.839844 44.597656 65.789062 44.519531 65.789062 44.46875 L 66.984375 31.410156 C 66.984375 31.332031 67.058594 31.28125 67.109375 31.28125 C 67.183594 31.28125 67.238281 31.359375 67.238281 31.410156 L 67.183594 32.070312 L 66.042969 44.46875 C 66.042969 44.546875 65.992188 44.597656 65.917969 44.597656 "
        fill-opacity="1" />
    <path fill="#384154"
        d="M 67.109375 31.511719 C 67.035156 31.511719 66.984375 31.433594 66.984375 31.382812 L 67.339844 27.425781 L 68.503906 14.289062 C 68.554688 13.882812 68.632812 13.199219 69.039062 12.820312 C 69.546875 12.335938 70.105469 12.386719 70.484375 12.414062 L 70.535156 12.414062 L 84.441406 13.632812 C 84.769531 13.683594 85.203125 13.730469 85.480469 14.113281 C 85.761719 14.492188 85.710938 14.976562 85.683594 15.355469 L 85.683594 15.480469 L 84.820312 24.664062 C 84.820312 24.738281 84.746094 24.789062 84.695312 24.789062 C 84.617188 24.789062 84.566406 24.714844 84.566406 24.664062 L 85.457031 15.355469 C 85.480469 15 85.507812 14.570312 85.304688 14.289062 C 85.074219 13.984375 84.746094 13.960938 84.441406 13.910156 L 84.390625 13.910156 L 70.511719 12.691406 C 70.128906 12.667969 69.699219 12.617188 69.242188 13.023438 C 68.910156 13.328125 68.835938 13.960938 68.785156 14.316406 L 67.617188 27.453125 L 67.261719 31.410156 C 67.238281 31.460938 67.183594 31.511719 67.109375 31.511719 "
        fill-opacity="1" />
    <path fill="#384154"
        d="M 83.222656 40.511719 C 83.144531 40.511719 83.097656 40.4375 83.097656 40.386719 L 84.238281 28.316406 C 84.238281 28.238281 84.3125 28.1875 84.363281 28.1875 C 84.441406 28.1875 84.492188 28.265625 84.492188 28.316406 L 83.351562 40.386719 C 83.351562 40.460938 83.273438 40.511719 83.222656 40.511719 "
        fill-opacity="1" />
    <path fill="#384154"
        d="M 80.632812 47.996094 L 80.558594 47.996094 L 69.46875 46.957031 L 69.46875 46.828125 L 69.496094 46.703125 L 80.660156 47.742188 C 80.734375 47.742188 80.785156 47.816406 80.785156 47.867188 C 80.734375 47.945312 80.6875 47.996094 80.632812 47.996094 "
        fill-opacity="1" />
    <path fill="#384154"
        d="M 66.476562 43.632812 C 66.398438 43.632812 66.347656 43.558594 66.347656 43.507812 L 67.390625 32.121094 C 67.390625 32.042969 67.464844 31.992188 67.515625 31.992188 C 67.59375 31.992188 67.640625 32.070312 67.640625 32.121094 L 66.601562 43.507812 C 66.601562 43.582031 66.550781 43.632812 66.476562 43.632812 "
        fill-opacity="1" />
    <path fill="#384154"
        d="M 82.664062 41.78125 C 82.640625 41.78125 82.640625 41.78125 82.664062 41.78125 C 82.589844 41.78125 82.539062 41.730469 82.539062 41.65625 L 82.742188 39.5 L 85 15.660156 C 85.023438 15.332031 85.050781 15 84.847656 14.695312 C 84.71875 14.492188 84.464844 14.46875 84.1875 14.441406 L 84.136719 14.441406 L 80.6875 14.136719 C 80.632812 14.136719 80.457031 14.136719 80.355469 14.1875 C 80.304688 14.214844 80.253906 14.238281 80.230469 14.265625 C 80.125 14.339844 80.050781 14.390625 79.875 14.46875 C 79.570312 14.59375 79.164062 14.542969 79.136719 14.542969 L 75 14.1875 C 74.976562 14.1875 74.570312 14.164062 74.316406 13.960938 C 74.136719 13.835938 74.089844 13.757812 74.011719 13.683594 C 73.988281 13.65625 73.960938 13.632812 73.9375 13.605469 C 73.808594 13.480469 73.65625 13.480469 73.65625 13.480469 L 70.738281 13.226562 C 70.308594 13.199219 69.875 13.175781 69.546875 13.503906 C 69.316406 13.730469 69.265625 14.238281 69.214844 14.671875 L 67.640625 32.121094 C 67.640625 32.195312 67.566406 32.246094 67.515625 32.246094 C 67.4375 32.246094 67.390625 32.167969 67.390625 32.121094 L 68.960938 14.671875 C 69.011719 14.214844 69.089844 13.65625 69.367188 13.351562 C 69.800781 12.921875 70.382812 12.972656 70.765625 12.996094 L 73.65625 13.25 C 73.65625 13.25 73.910156 13.25 74.113281 13.453125 C 74.136719 13.480469 74.164062 13.503906 74.191406 13.527344 C 74.265625 13.605469 74.289062 13.65625 74.46875 13.757812 C 74.621094 13.882812 74.925781 13.933594 75.027344 13.933594 L 79.164062 14.289062 C 79.164062 14.289062 79.519531 14.339844 79.746094 14.238281 C 79.898438 14.164062 79.972656 14.113281 80.050781 14.0625 C 80.101562 14.035156 80.125 14.011719 80.175781 13.960938 C 80.378906 13.835938 80.632812 13.859375 80.660156 13.859375 L 84.1875 14.164062 C 84.515625 14.214844 84.847656 14.238281 85.050781 14.542969 C 85.277344 14.925781 85.253906 15.304688 85.226562 15.660156 L 85.226562 15.761719 L 82.792969 41.65625 C 82.765625 41.707031 82.714844 41.78125 82.664062 41.78125 "
        fill-opacity="1" />
    <g clip-path="url(#id5)">
        <path fill="#384154"
            d="M 60.335938 75.03125 C 60.308594 75.03125 60.308594 75.03125 60.285156 75.03125 C 60.207031 75.003906 60.183594 74.929688 60.207031 74.851562 C 61.273438 72.316406 63.226562 71.125 65.105469 69.933594 C 66.527344 69.046875 67.898438 68.207031 68.808594 66.863281 C 69.648438 65.621094 70.433594 64.503906 71.117188 63.515625 C 72.792969 61.15625 73.988281 59.433594 74.394531 58.089844 C 74.59375 57.429688 74.847656 56.796875 75.101562 56.238281 C 75.558594 55.148438 75.914062 54.3125 75.585938 53.828125 C 75.457031 53.652344 75.28125 53.523438 75.027344 53.523438 C 74.367188 53.472656 73.378906 54.082031 72.464844 55.097656 C 72.160156 55.425781 71.804688 55.933594 71.421875 56.492188 C 70.433594 57.910156 69.292969 59.535156 68.023438 59.660156 C 67.542969 59.710938 67.085938 59.535156 66.652344 59.152344 C 65.6875 58.292969 66.347656 56.1875 66.90625 54.335938 C 67.058594 53.804688 67.210938 53.320312 67.3125 52.914062 C 67.746094 51.089844 68.65625 48.527344 69.34375 46.675781 C 69.394531 46.523438 69.570312 46.117188 69.800781 45.5625 C 70.332031 44.265625 71.21875 42.085938 71.652344 40.742188 C 72.109375 39.347656 72.515625 37.925781 72.132812 37.214844 C 72.007812 36.988281 71.828125 36.835938 71.550781 36.761719 C 70.890625 36.582031 69.671875 38.664062 68.859375 40.058594 C 68.53125 40.617188 68.199219 41.121094 67.84375 41.65625 C 67.085938 42.796875 66.195312 44.089844 64.976562 46.625 C 64.851562 46.878906 64.699219 47.234375 64.496094 47.640625 C 63.683594 49.363281 62.464844 51.976562 61.425781 53.675781 C 61.402344 53.726562 61.300781 53.75 61.25 53.726562 C 61.199219 53.699219 61.171875 53.601562 61.199219 53.550781 C 62.238281 51.851562 63.507812 49.164062 64.269531 47.539062 C 64.472656 47.132812 64.621094 46.777344 64.75 46.523438 C 65.96875 43.988281 66.855469 42.667969 67.617188 41.527344 C 67.972656 40.996094 68.300781 40.488281 68.632812 39.929688 C 69.824219 37.851562 70.816406 36.304688 71.601562 36.507812 C 71.929688 36.609375 72.183594 36.785156 72.335938 37.066406 C 72.769531 37.875 72.335938 39.347656 71.878906 40.792969 C 71.421875 42.136719 70.535156 44.316406 70.003906 45.609375 C 69.773438 46.144531 69.621094 46.574219 69.546875 46.726562 C 68.886719 48.578125 67.945312 51.113281 67.542969 52.941406 C 67.4375 53.371094 67.289062 53.855469 67.136719 54.386719 C 66.601562 56.085938 65.96875 58.164062 66.804688 58.949219 C 67.183594 59.28125 67.566406 59.433594 67.972656 59.382812 C 69.113281 59.257812 70.257812 57.632812 71.195312 56.3125 C 71.578125 55.78125 71.929688 55.246094 72.261719 54.894531 C 73.25 53.804688 74.289062 53.167969 75.027344 53.21875 C 75.332031 53.246094 75.609375 53.398438 75.761719 53.652344 C 76.167969 54.234375 75.789062 55.148438 75.304688 56.3125 C 75.078125 56.871094 74.824219 57.480469 74.621094 58.140625 C 74.191406 59.535156 72.996094 61.257812 71.320312 63.644531 C 70.636719 64.632812 69.851562 65.722656 69.011719 66.964844 C 68.074219 68.359375 66.703125 69.222656 65.230469 70.109375 C 63.378906 71.25 61.453125 72.441406 60.4375 74.902344 C 60.4375 74.980469 60.386719 75.03125 60.335938 75.03125 "
            fill-opacity="1" />
    </g>
    <path fill="#384154"
        d="M 66.550781 58.75 C 66.5 58.75 66.449219 58.722656 66.425781 58.671875 C 66.398438 58.597656 66.425781 58.546875 66.5 58.519531 C 67.136719 58.292969 67.792969 56.921875 68.152344 55.121094 C 68.199219 54.816406 68.277344 54.511719 68.355469 54.207031 C 68.683594 52.839844 68.960938 51.671875 68.097656 50.808594 C 68.046875 50.757812 68.046875 50.683594 68.097656 50.632812 C 68.152344 50.582031 68.226562 50.582031 68.277344 50.632812 C 69.214844 51.597656 68.910156 52.890625 68.582031 54.257812 C 68.503906 54.5625 68.429688 54.867188 68.378906 55.171875 C 67.996094 57.074219 67.289062 58.46875 66.578125 58.75 L 66.550781 58.75 "
        fill-opacity="1" />
    <path fill="#384154"
        d="M 57.796875 52.28125 C 57.773438 52.28125 57.746094 52.28125 57.722656 52.253906 C 57.671875 52.230469 57.644531 52.128906 57.671875 52.078125 C 58.277344 51.089844 58.964844 50.835938 59.800781 50.554688 C 60.207031 50.429688 60.613281 50.277344 61.070312 50.050781 C 61.578125 49.796875 62.0625 49.566406 62.464844 49.363281 C 62.972656 49.109375 63.429688 48.910156 63.734375 48.730469 C 63.785156 48.707031 63.863281 48.707031 63.914062 48.78125 C 63.9375 48.832031 63.9375 48.910156 63.863281 48.960938 C 63.53125 49.164062 63.101562 49.363281 62.566406 49.617188 C 62.136719 49.820312 61.679688 50.050781 61.171875 50.300781 C 60.691406 50.554688 60.257812 50.707031 59.878906 50.835938 C 59.066406 51.113281 58.433594 51.34375 57.875 52.253906 C 57.875 52.253906 57.847656 52.28125 57.796875 52.28125 "
        fill-opacity="1" />
    <g clip-path="url(#id6)">
        <path fill="#384154"
            d="M 45.1875 74.800781 C 45.160156 74.800781 45.136719 74.800781 45.109375 74.777344 C 45.058594 74.726562 45.035156 74.648438 45.085938 74.597656 C 48.738281 69.121094 49.09375 66.710938 49.472656 64.125 C 49.550781 63.566406 49.652344 62.855469 49.753906 62.070312 C 50.160156 59.101562 50.640625 55.402344 51.175781 54.183594 C 51.886719 52.558594 52.773438 52.128906 53.078125 51.976562 C 53.660156 51.699219 54.09375 51.648438 54.5 51.570312 C 54.851562 51.519531 55.210938 51.46875 55.640625 51.292969 C 56.375 50.988281 56.910156 50.632812 57.46875 50.253906 C 57.644531 50.152344 57.824219 50.023438 58 49.898438 C 58.964844 49.289062 59.902344 49.3125 60.894531 49.363281 C 61.375 49.390625 61.855469 49.414062 62.390625 49.363281 C 62.464844 49.363281 62.515625 49.414062 62.515625 49.492188 C 62.515625 49.566406 62.464844 49.617188 62.390625 49.617188 C 61.832031 49.667969 61.347656 49.644531 60.867188 49.617188 C 59.878906 49.566406 59.039062 49.542969 58.125 50.101562 C 57.949219 50.226562 57.773438 50.328125 57.59375 50.429688 C 57.011719 50.808594 56.476562 51.164062 55.71875 51.496094 C 55.261719 51.699219 54.878906 51.75 54.523438 51.773438 C 54.117188 51.824219 53.710938 51.875 53.179688 52.15625 C 52.898438 52.28125 52.0625 52.710938 51.402344 54.234375 C 50.894531 55.425781 50.386719 59.257812 50.007812 62.070312 C 49.90625 62.855469 49.804688 63.542969 49.726562 64.125 C 49.371094 66.609375 48.992188 69.195312 45.289062 74.699219 C 45.261719 74.777344 45.210938 74.800781 45.1875 74.800781 "
            fill-opacity="1" />
    </g>
    <path fill="#384154"
        d="M 20.242188 11.195312 Z M 25.113281 6.632812 C 22.527344 6.632812 20.394531 8.6875 20.371094 11.195312 C 20.34375 14.875 24.328125 21.136719 25.039062 22.203125 C 25.75 21.164062 29.785156 15.179688 29.835938 11.195312 C 29.859375 10.03125 29.378906 8.914062 28.539062 8.050781 C 27.625 7.136719 26.382812 6.632812 25.113281 6.632812 Z M 25.039062 22.558594 C 24.988281 22.558594 24.960938 22.53125 24.9375 22.507812 C 24.734375 22.203125 20.089844 15.304688 20.140625 11.195312 C 20.167969 8.535156 22.398438 6.378906 25.140625 6.378906 C 26.484375 6.378906 27.804688 6.910156 28.742188 7.875 C 29.632812 8.789062 30.140625 9.953125 30.113281 11.195312 C 30.0625 15.609375 25.367188 22.230469 25.164062 22.507812 C 25.113281 22.53125 25.0625 22.558594 25.039062 22.558594 "
        fill-opacity="1" />
    <path fill="#384154"
        d="M 25.191406 8.8125 C 23.898438 8.8125 22.832031 9.800781 22.832031 11.019531 C 22.832031 12.234375 23.898438 13.226562 25.191406 13.226562 C 26.484375 13.226562 27.550781 12.234375 27.550781 11.019531 C 27.523438 9.800781 26.484375 8.8125 25.191406 8.8125 Z M 25.191406 13.480469 C 23.746094 13.480469 22.578125 12.386719 22.578125 11.019531 C 22.578125 9.675781 23.746094 8.558594 25.191406 8.558594 C 26.636719 8.558594 27.804688 9.648438 27.804688 11.019531 C 27.777344 12.363281 26.613281 13.480469 25.191406 13.480469 "
        fill-opacity="1" />
    <path fill="#e34848"
        d="M 72.691406 23.523438 C 72.894531 21.746094 74.542969 20.402344 76.398438 20.605469 C 78.25 20.78125 79.621094 22.429688 79.417969 24.207031 C 79.0625 27.273438 75.203125 31.664062 75.203125 31.664062 C 75.203125 31.664062 72.363281 26.363281 72.691406 23.523438 "
        fill-opacity="1" />
    <path fill="#384154"
        d="M 72.820312 23.546875 C 72.539062 26.03125 74.773438 30.546875 75.253906 31.460938 C 75.914062 30.699219 79.011719 26.894531 79.316406 24.207031 C 79.417969 23.394531 79.164062 22.609375 78.65625 21.949219 C 78.097656 21.265625 77.285156 20.832031 76.398438 20.730469 C 74.621094 20.554688 72.996094 21.796875 72.820312 23.546875 Z M 75.230469 31.789062 C 75.203125 31.789062 75.203125 31.789062 75.230469 31.789062 C 75.179688 31.789062 75.128906 31.765625 75.128906 31.714844 C 75 31.484375 72.261719 26.335938 72.589844 23.496094 C 72.792969 21.621094 74.519531 20.277344 76.449219 20.480469 C 77.386719 20.582031 78.273438 21.0625 78.859375 21.796875 C 79.417969 22.507812 79.671875 23.371094 79.59375 24.230469 C 79.238281 27.300781 75.507812 31.585938 75.355469 31.765625 C 75.28125 31.789062 75.253906 31.789062 75.230469 31.789062 "
        fill-opacity="1" />
    <path fill="#ffffff"
        d="M 74.367188 23.800781 C 74.46875 22.914062 75.304688 22.253906 76.246094 22.355469 C 77.183594 22.457031 77.894531 23.269531 77.792969 24.15625 C 77.691406 25.042969 76.855469 25.703125 75.914062 25.601562 C 74.976562 25.5 74.289062 24.6875 74.367188 23.800781 "
        fill-opacity="1" />
    <path fill="#384154"
        d="M 76.066406 22.457031 C 75.253906 22.457031 74.570312 23.039062 74.492188 23.800781 C 74.445312 24.207031 74.570312 24.585938 74.847656 24.890625 C 75.128906 25.195312 75.507812 25.398438 75.941406 25.449219 C 76.828125 25.550781 77.613281 24.941406 77.691406 24.128906 C 77.765625 23.320312 77.132812 22.558594 76.246094 22.480469 C 76.195312 22.480469 76.144531 22.457031 76.066406 22.457031 Z M 76.117188 25.726562 C 76.042969 25.726562 75.992188 25.726562 75.914062 25.726562 C 75.433594 25.675781 74.976562 25.449219 74.671875 25.09375 C 74.339844 24.738281 74.214844 24.257812 74.265625 23.800781 C 74.367188 22.835938 75.253906 22.125 76.296875 22.253906 C 77.308594 22.355469 78.070312 23.21875 77.96875 24.179688 C 77.871094 25.070312 77.058594 25.726562 76.117188 25.726562 "
        fill-opacity="1" />
    <path fill="#384154"
        d="M 77.96875 32.777344 C 77.03125 32.777344 76.015625 32.726562 75.28125 32.652344 C 73.910156 32.523438 72.640625 32.324219 71.703125 32.09375 C 70.308594 31.738281 70.15625 31.460938 70.179688 31.28125 C 70.257812 30.496094 74.394531 30.773438 74.847656 30.824219 C 74.925781 30.824219 74.976562 30.902344 74.976562 30.953125 C 74.976562 31.003906 74.898438 31.078125 74.847656 31.078125 C 71.90625 30.851562 70.511719 31.128906 70.457031 31.308594 C 70.484375 31.535156 72.160156 32.09375 75.332031 32.398438 C 78.527344 32.703125 80.253906 32.449219 80.332031 32.222656 C 80.304688 32.019531 78.910156 31.484375 75.839844 31.15625 C 75.761719 31.15625 75.710938 31.078125 75.738281 31.027344 C 75.738281 30.953125 75.8125 30.902344 75.863281 30.925781 C 76.347656 30.976562 80.660156 31.460938 80.582031 32.273438 C 80.507812 32.652344 79.316406 32.777344 77.96875 32.777344 "
        fill-opacity="1" />
    <path fill="#384154"
        d="M 77.5625 33.539062 C 76.878906 33.539062 76.117188 33.515625 75.332031 33.4375 C 72.386719 33.160156 69.242188 32.371094 69.242188 31.410156 C 69.242188 31.28125 69.292969 31.15625 69.417969 31.027344 C 70.003906 30.496094 72.03125 30.242188 74.59375 30.394531 C 74.671875 30.394531 74.722656 30.46875 74.722656 30.523438 C 74.722656 30.597656 74.644531 30.648438 74.59375 30.648438 C 72.160156 30.496094 70.105469 30.722656 69.597656 31.207031 C 69.519531 31.28125 69.496094 31.332031 69.496094 31.410156 C 69.496094 31.992188 71.90625 32.878906 75.355469 33.183594 C 78.453125 33.464844 80.582031 33.160156 81.089844 32.675781 C 81.167969 32.601562 81.191406 32.550781 81.191406 32.476562 C 81.191406 31.941406 79.238281 31.15625 76.042969 30.773438 C 75.964844 30.773438 75.914062 30.699219 75.941406 30.621094 C 75.941406 30.546875 76.015625 30.496094 76.09375 30.523438 C 78.679688 30.824219 81.472656 31.5625 81.472656 32.476562 C 81.472656 32.601562 81.394531 32.753906 81.269531 32.855469 C 80.8125 33.3125 79.390625 33.539062 77.5625 33.539062 "
        fill-opacity="1" />
    <path fill="#384154"
        d="M 79.671875 40.007812 C 79.621094 40.007812 79.59375 40.007812 79.542969 40.007812 L 72.285156 39.398438 C 72.210938 39.398438 72.160156 39.320312 72.160156 39.269531 C 72.160156 39.21875 72.234375 39.144531 72.285156 39.144531 L 79.542969 39.753906 C 79.796875 39.777344 80.050781 39.703125 80.253906 39.523438 C 80.457031 39.347656 80.582031 39.121094 80.609375 38.867188 L 80.734375 37.46875 C 80.761719 37.214844 80.6875 36.964844 80.507812 36.761719 C 80.332031 36.558594 80.101562 36.429688 79.847656 36.40625 L 70.003906 35.492188 C 69.46875 35.441406 68.988281 35.847656 68.9375 36.378906 L 68.808594 37.773438 C 68.757812 38.207031 69.011719 38.613281 69.417969 38.765625 C 69.496094 38.789062 69.519531 38.867188 69.496094 38.941406 C 69.46875 39.015625 69.394531 39.042969 69.316406 39.015625 C 68.808594 38.8125 68.503906 38.308594 68.554688 37.75 L 68.683594 36.355469 C 68.734375 35.671875 69.34375 35.164062 70.027344 35.238281 L 79.875 36.152344 C 80.203125 36.175781 80.507812 36.328125 80.710938 36.582031 C 80.914062 36.835938 81.015625 37.167969 80.988281 37.496094 L 80.863281 38.890625 C 80.835938 39.21875 80.6875 39.523438 80.433594 39.726562 C 80.230469 39.90625 79.949219 40.007812 79.671875 40.007812 "
        fill-opacity="1" />
    <path fill="#384154"
        d="M 77.109375 13.582031 C 77.03125 13.582031 76.980469 13.632812 76.980469 13.683594 C 76.980469 13.730469 77.03125 13.78125 77.109375 13.78125 C 77.183594 13.78125 77.234375 13.730469 77.234375 13.683594 C 77.234375 13.632812 77.15625 13.582031 77.109375 13.582031 Z M 77.109375 14.035156 C 76.90625 14.035156 76.726562 13.882812 76.726562 13.683594 C 76.726562 13.480469 76.90625 13.328125 77.109375 13.328125 C 77.308594 13.328125 77.488281 13.480469 77.488281 13.683594 C 77.488281 13.882812 77.308594 14.035156 77.109375 14.035156 "
        fill-opacity="1" />
    <path fill="#384154"
        d="M 78.273438 13.757812 C 78.25 13.757812 78.25 13.78125 78.25 13.78125 C 78.25 13.808594 78.324219 13.808594 78.324219 13.78125 C 78.300781 13.78125 78.273438 13.757812 78.273438 13.757812 Z M 78.273438 14.0625 C 78.121094 14.0625 77.996094 13.933594 77.996094 13.78125 C 77.996094 13.632812 78.121094 13.503906 78.273438 13.503906 C 78.425781 13.503906 78.554688 13.632812 78.554688 13.78125 C 78.554688 13.933594 78.425781 14.0625 78.273438 14.0625 "
        fill-opacity="1" />
    <path fill="#384154"
        d="M 78.832031 18.804688 C 78.808594 18.804688 78.757812 18.78125 78.730469 18.753906 C 77.917969 17.867188 75.507812 17.613281 74.570312 18.347656 C 74.519531 18.398438 74.445312 18.375 74.394531 18.324219 C 74.339844 18.273438 74.367188 18.195312 74.417969 18.144531 C 75.457031 17.359375 78.046875 17.613281 78.933594 18.601562 C 78.984375 18.652344 78.984375 18.730469 78.933594 18.78125 C 78.882812 18.78125 78.859375 18.804688 78.832031 18.804688 "
        fill-opacity="1" />
    <path fill="#384154"
        d="M 79.972656 18.042969 C 79.949219 18.042969 79.898438 18.019531 79.875 17.992188 C 78.707031 16.699219 75.230469 16.371094 73.835938 17.382812 C 73.785156 17.433594 73.707031 17.410156 73.65625 17.359375 C 73.605469 17.308594 73.632812 17.230469 73.683594 17.179688 C 75.179688 16.066406 78.808594 16.421875 80.050781 17.816406 C 80.101562 17.867188 80.101562 17.941406 80.050781 17.992188 C 80.027344 18.019531 80 18.042969 79.972656 18.042969 "
        fill-opacity="1" />
    <path fill="#384154"
        d="M 78.070312 19.71875 C 78.046875 19.71875 77.996094 19.691406 77.96875 19.667969 C 77.4375 19.058594 75.8125 18.90625 75.152344 19.386719 C 75.101562 19.4375 75.027344 19.414062 74.976562 19.363281 C 74.925781 19.3125 74.949219 19.234375 75 19.183594 C 75.738281 18.628906 77.539062 18.804688 78.148438 19.488281 C 78.199219 19.539062 78.199219 19.617188 78.148438 19.667969 C 78.121094 19.691406 78.097656 19.71875 78.070312 19.71875 "
        fill-opacity="1" />
</svg>